<?xml version="1.0" encoding="utf-8"?>
<!-- Generator: Adobe Illustrator 24.0.2, SVG Export Plug-In . SVG Version: 6.00 Build 0)  -->
<svg version="1.1" id="Layer_1" xmlns="http://www.w3.org/2000/svg" xmlns:xlink="http://www.w3.org/1999/xlink" x="0px" y="0px"
	 viewBox="0 0 1256.7 1045.1" style="enable-background:new 0 0 1256.7 1045.1;" xml:space="preserve">
<style type="text/css">
	.st0{fill:#FFFFFF;}
	.st1{fill:#5C575D;}
	.st2{fill:#0F1735;}
	.st3{fill:#5E5C5D;}
	.st4{fill:#EB2729;}
	.st5{fill:#FE7B0D;}
	.st6{fill:#615862;}
	.st7{fill:#44A2CC;}
	.st8{fill:#A7A7A8;}
	.st9{display:none;}
	.st10{display:inline;fill:#0F1735;}
	.st11{display:inline;}
	.st12{fill:none;stroke:#EF2823;stroke-width:2;stroke-miterlimit:10;}
	.st13{fill:none;stroke:#EF2823;stroke-width:2;stroke-miterlimit:10;stroke-dasharray:2.6577,2.6577;}
	.st14{fill:none;stroke:#EF2823;stroke-width:2;stroke-miterlimit:10;stroke-dasharray:2.6412,2.6412;}
	.st15{fill:none;stroke:#EF2823;stroke-width:2;stroke-miterlimit:10;stroke-dasharray:2.6844,2.6844;}
	.st16{fill:none;stroke:#EF2823;stroke-width:2;stroke-miterlimit:10;stroke-dasharray:2.8735,2.8735;}
	.st17{display:inline;fill:none;stroke:#EF2823;stroke-width:2;stroke-miterlimit:10;stroke-dasharray:9;}
	.st18{display:inline;fill:#EF2823;}
	.st19{display:inline;fill:none;stroke:#EF2823;stroke-miterlimit:10;}
	.st20{fill:#513C27;}
	.st21{display:inline;fill:none;stroke:#513C27;stroke-miterlimit:10;}
	.st22{fill:none;stroke:#513C27;stroke-miterlimit:10;}
	.st23{display:inline;fill:#513C27;}
	.st24{display:inline;fill:none;stroke:#EF2823;stroke-width:2;stroke-miterlimit:10;stroke-dasharray:3;}
	.st25{display:inline;fill:none;stroke:#EF2823;stroke-width:5;stroke-miterlimit:10;stroke-dasharray:3;}
	.st26{display:inline;fill:none;stroke:#EF2823;stroke-width:3;stroke-miterlimit:10;}
	.st27{fill:#FD5120;}
	.st28{fill:#103859;}
	.st29{fill:#E6D8D8;}
	.st30{fill:#C5C1C0;}
	.st31{fill:#E23F25;}
	.st32{fill:#E4D7D7;}
	.st33{fill:#E95633;}
	.st34{fill:#F0552F;}
	.st35{fill:#09232A;}
	.st36{fill:#EF7E6E;}
	.st37{fill:#FFE0AE;}
	.st38{fill:#F35331;}
	.st39{fill:#F18169;}
	.st40{fill:#F37F68;}
	.st41{fill:#F5F2F6;}
	.st42{fill:#161F27;}
	.st43{fill:#ED3C1C;}
	.st44{fill:#F25428;}
	.st45{fill:#0A2C40;}
	.st46{fill:#F2532A;}
	.st47{fill:#104F6E;}
	.st48{fill:#F5CDC4;}
	.st49{fill:#133B56;}
	.st50{fill:#EF552F;}
</style>
<g>
	<g>
		<path class="st27" d="M892.73,886.76h-38.29v-4.23h38.29c0.4,0,0.74-0.33,0.74-0.74V774.52c0-2.74,2.23-4.97,4.97-4.97h95.99
			c2.74,0,4.97,2.23,4.97,4.97v39.62h-4.23v-39.62c0-0.4-0.33-0.74-0.74-0.74h-95.99c-0.4,0-0.74,0.33-0.74,0.74v107.28
			C897.7,884.53,895.47,886.76,892.73,886.76z"/>
	</g>
	<path class="st28" d="M1028.73,836.49h-62.91c-4.65,0-8.46-3.81-8.46-8.46v-24.14c0-4.65,3.81-8.46,8.46-8.46h62.91
		c4.65,0,8.46,3.81,8.46,8.46v24.14C1037.19,832.69,1033.38,836.49,1028.73,836.49z"/>
	<ellipse class="st29" cx="997.72" cy="1010.7" rx="113.05" ry="12.23"/>
	<ellipse class="st29" cx="622.16" cy="1005.06" rx="299.65" ry="22.84"/>
	<g>
		<path class="st30" d="M858.02,665.04c-2.75,0-5.52-0.05-8.22-0.15l0.1-2.82c4.13,0.15,8.34,0.18,12.61,0.1l0.05,2.82
			C861.04,665.03,859.53,665.04,858.02,665.04z M875.32,664.4l-0.2-2.81c4.11-0.3,8.34-0.71,12.56-1.23l0.34,2.8
			C883.75,663.68,879.48,664.1,875.32,664.4z M837.08,664.06c-4.2-0.4-8.46-0.93-12.65-1.57l0.43-2.79
			c4.14,0.64,8.35,1.16,12.49,1.55L837.08,664.06z M900.63,661.32l-0.47-2.78c4.07-0.69,8.25-1.48,12.41-2.36l0.58,2.76
			C908.96,659.82,904.75,660.62,900.63,661.32z M811.89,660.19c-4.07-0.86-8.24-1.87-12.39-2.98l0.73-2.72
			c4.11,1.1,8.23,2.09,12.25,2.94L811.89,660.19z M925.57,656.07l-0.68-2.73l1.62-0.41c3.5-0.89,7.02-1.92,10.46-3.06l0.89,2.68
			c-3.5,1.16-7.08,2.21-10.65,3.12L925.57,656.07z M787.27,653.63c-3.89-1.24-7.95-2.62-12.04-4.11l0.96-2.65
			c4.06,1.47,8.08,2.84,11.94,4.07L787.27,653.63z M949.81,648.04l-1.1-2.6c3.81-1.61,7.63-3.4,11.36-5.32l1.29,2.51
			C957.58,644.58,953.69,646.4,949.81,648.04z M763.33,644.99c-3.68-1.47-7.53-3.05-11.77-4.84l1.1-2.6
			c4.22,1.79,8.05,3.36,11.71,4.82L763.33,644.99z M972.5,636.37l-1.47-2.41c3.53-2.16,7.07-4.49,10.5-6.93l1.63,2.3
			C979.67,631.81,976.09,634.17,972.5,636.37z M739.91,635.1c-3.84-1.69-7.71-3.41-11.6-5.14l1.15-2.58
			c3.89,1.73,7.75,3.45,11.59,5.13L739.91,635.1z M716.71,624.83c-3.83-1.69-7.7-3.38-11.62-5.06l1.11-2.59
			c3.93,1.68,7.81,3.38,11.64,5.07L716.71,624.83z M993.34,621.62l-1.77-2.19c3.21-2.6,6.42-5.36,9.55-8.22l1.9,2.08
			C999.84,616.19,996.59,618.99,993.34,621.62z M347.95,619.51c-4.24-0.09-8.55-0.46-12.81-1.08l0.41-2.79
			c4.15,0.61,8.34,0.96,12.46,1.05L347.95,619.51z M360.78,618.98l-0.29-2.81c4.02-0.41,8.06-1.05,12.37-1.95l0.58,2.76
			C369.04,617.91,364.9,618.56,360.78,618.98z M322.57,615.84c-3.97-1.05-8.09-2.34-12.22-3.85l0.97-2.65
			c4.05,1.48,8.08,2.75,11.97,3.77L322.57,615.84z M693.42,614.88c-4.11-1.68-7.95-3.21-11.76-4.67l1.01-2.63
			c3.82,1.47,7.69,3,11.81,4.69L693.42,614.88z M385.84,613.88l-0.78-2.71c3.62-1.04,7.45-2.24,12.04-3.77l0.89,2.67
			C393.36,611.61,389.5,612.82,385.84,613.88z M298.5,607.16c-3.73-1.68-7.59-3.57-11.48-5.6l1.31-2.5c3.84,2,7.65,3.86,11.33,5.52
			L298.5,607.16z M410.01,605.95l-0.93-2.66l1.09-0.38c3.55-1.24,7.18-2.5,10.91-3.77l0.91,2.67c-3.73,1.27-7.35,2.53-10.89,3.76
			L410.01,605.95z M669.81,605.82c-4.01-1.42-8.04-2.79-11.97-4.06l0.87-2.68c3.96,1.28,8.01,2.65,12.05,4.09L669.81,605.82z
			 M1012.2,604.43l-2.01-1.98c2.9-2.95,5.8-6.05,8.61-9.22l2.11,1.87C1018.07,598.31,1015.14,601.45,1012.2,604.43z M645.76,598.06
			c-4.06-1.17-8.16-2.29-12.19-3.31l0.69-2.73c4.06,1.03,8.19,2.15,12.28,3.34L645.76,598.06z M434.01,597.86l-0.85-2.69
			c4.25-1.34,8.24-2.52,12.2-3.62l0.76,2.72C442.19,595.36,438.23,596.54,434.01,597.86z M275.88,595.31
			c-3.64-2.23-7.22-4.62-10.63-7.11l1.66-2.28c3.35,2.44,6.86,4.79,10.44,6.98L275.88,595.31z M621.27,591.83
			c-4.08-0.9-8.25-1.74-12.38-2.5l0.51-2.77c4.16,0.77,8.36,1.62,12.47,2.52L621.27,591.83z M458.35,591.11l-0.65-2.74
			c4.14-0.99,8.33-1.89,12.45-2.69l0.54,2.77C466.61,589.23,462.45,590.13,458.35,591.11z M596.44,587.24
			c-4.12-0.62-8.33-1.19-12.52-1.69l0.33-2.8c4.22,0.5,8.46,1.07,12.61,1.7L596.44,587.24z M483.12,586.28l-0.42-2.79
			c4.15-0.63,8.4-1.19,12.63-1.66l0.31,2.8C491.45,585.11,487.24,585.66,483.12,586.28z M1029.16,585.38l-2.19-1.77
			c2.6-3.22,5.2-6.58,7.73-9.99l2.27,1.68C1034.41,578.74,1031.79,582.13,1029.16,585.38z M571.35,584.25
			c-1.86-0.16-3.74-0.32-5.64-0.46c-2.36-0.17-4.68-0.33-6.98-0.47l0.17-2.81c2.31,0.14,4.65,0.29,7.02,0.47
			c1.91,0.14,3.8,0.29,5.67,0.46L571.35,584.25z M508.21,583.49l-0.2-2.81c4.18-0.3,8.46-0.53,12.71-0.68l0.1,2.82
			C516.6,582.97,512.36,583.2,508.21,583.49z M546.1,582.77c-4.04-0.12-8.09-0.18-12.05-0.18h-0.59v-2.82h0.59
			c3.99,0,8.07,0.06,12.14,0.18L546.1,582.77z M255.24,580.23c-3.2-2.78-6.33-5.73-9.31-8.78l2.02-1.97
			c2.92,2.99,5.99,5.89,9.14,8.62L255.24,580.23z M1044.34,564.9l-2.33-1.59c2.33-3.42,4.66-6.98,6.92-10.58l2.39,1.5
			C1049.04,557.87,1046.69,561.46,1044.34,564.9z M237.39,561.94c-2.69-3.25-5.29-6.66-7.76-10.16l2.31-1.62
			c2.42,3.43,4.98,6.79,7.62,9.98L237.39,561.94z M1057.91,543.33l-2.44-1.42c2.09-3.6,4.17-7.31,6.18-11.04l2.48,1.34
			C1062.12,535.96,1060.02,539.7,1057.91,543.33z M222.67,541.06c-2.15-3.59-4.24-7.35-6.19-11.19l2.51-1.28
			c1.92,3.77,3.97,7.48,6.09,11.02L222.67,541.06z M1070.02,520.91l-2.52-1.26c1.87-3.72,3.72-7.56,5.51-11.39l2.56,1.19
			C1073.76,513.31,1071.9,517.17,1070.02,520.91z M211.04,518.31c-1.66-3.84-3.25-7.84-4.73-11.87l2.65-0.97
			c1.46,3.98,3.03,7.92,4.67,11.72L211.04,518.31z M1080.79,497.83l-2.59-1.12c1.66-3.82,3.3-7.74,4.88-11.65l2.61,1.06
			C1084.11,490.05,1082.45,494,1080.79,497.83z M202.24,494.34c-1.23-3.98-2.39-8.11-3.47-12.29l2.73-0.7
			c1.06,4.13,2.22,8.22,3.43,12.16L202.24,494.34z M1090.32,474.26l-2.64-0.99c1.48-3.93,2.93-7.93,4.32-11.9l2.66,0.93
			C1093.26,466.29,1091.8,470.32,1090.32,474.26z M195.86,469.63c-0.86-4.08-1.67-8.29-2.4-12.52l2.78-0.48
			c0.72,4.2,1.53,8.38,2.38,12.42L195.86,469.63z M1098.72,450.22l-2.68-0.87c1.29-3.97,2.56-8.05,3.78-12.12l2.7,0.81
			C1101.29,442.14,1100.02,446.23,1098.72,450.22z M191.52,444.51c-0.56-4.1-1.08-8.35-1.53-12.64l2.8-0.29
			c0.45,4.26,0.96,8.49,1.51,12.56L191.52,444.51z M1106.05,425.82l-2.72-0.75c1.11-4.02,2.21-8.14,3.25-12.25l2.73,0.69
			C1108.26,417.63,1107.16,421.77,1106.05,425.82z M188.85,419.19c-0.32-4.13-0.59-8.4-0.81-12.69l2.82-0.14
			c0.22,4.27,0.49,8.52,0.8,12.62L188.85,419.19z M1112.31,401.14l-2.75-0.64c0.94-4.08,1.86-8.24,2.73-12.37l2.76,0.58
			C1114.19,392.87,1113.26,397.05,1112.31,401.14z M187.54,393.78c-0.12-4.16-0.19-8.44-0.22-12.72l2.82-0.02
			c0.03,4.27,0.11,8.53,0.22,12.67L187.54,393.78z M1117.55,376.23l-2.77-0.52c0.78-4.12,1.52-8.32,2.21-12.48l2.78,0.46
			C1119.08,367.87,1118.33,372.09,1117.55,376.23z M190.15,368.36l-2.82-0.03c0.04-4.13,0.12-8.41,0.23-12.71l2.82,0.07
			C190.27,359.99,190.19,364.25,190.15,368.36z M1121.73,351.11l-2.79-0.4c0.6-4.17,1.16-8.39,1.67-12.56l2.8,0.34
			C1122.9,342.68,1122.34,346.93,1121.73,351.11z M190.79,343.03l-2.82-0.11c0.17-4.32,0.36-8.55,0.56-12.69l2.82,0.14
			C191.14,334.5,190.96,338.73,190.79,343.03z M1124.81,325.84l-2.81-0.28c0.42-4.21,0.78-8.45,1.09-12.62l2.81,0.21
			C1125.6,317.34,1125.23,321.61,1124.81,325.84z M192.01,317.71l-2.81-0.16c0.23-4.1,0.46-8.09,0.68-11.94l0.04-0.73l2.81,0.16
			l-0.04,0.73C192.47,309.62,192.24,313.6,192.01,317.71z M1126.69,300.44l-2.82-0.14c0.21-4.28,0.35-8.53,0.44-12.65l2.82,0.06
			C1127.04,291.85,1126.9,296.13,1126.69,300.44z M192.82,297l-2.82-0.11c0.16-4.1,0.47-8.4,0.92-12.78l2.81,0.29
			C193.28,288.71,192.98,292.95,192.82,297z M1124.37,275c-0.05-4.26-0.16-8.51-0.35-12.64l2.82-0.13
			c0.19,4.15,0.31,8.44,0.35,12.73L1124.37,275z M195.4,271.88l-2.78-0.45c0.68-4.2,1.49-8.42,2.41-12.55l2.75,0.61
			C196.87,263.57,196.07,267.74,195.4,271.88z M1123.19,249.76c-0.37-4.32-0.84-8.54-1.38-12.55l2.8-0.38
			c0.55,4.05,1.02,8.31,1.39,12.68L1123.19,249.76z M200.86,247.25l-2.71-0.77c1.17-4.11,2.46-8.21,3.86-12.19l2.66,0.93
			C203.3,239.15,202.01,243.2,200.86,247.25z M1119.77,224.77l1.39-0.26l-1.39,0.24c-0.81-4.1-1.79-8.18-2.92-12.18l2.71-0.77
			c1.15,4.08,2.15,8.23,2.96,12.35l-1.37,0.36L1119.77,224.77z M209.21,223.47l-2.6-1.1c1.67-3.94,3.48-7.84,5.38-11.6l2.52,1.27
			C212.64,215.74,210.86,219.59,209.21,223.47z M220.58,201.01l-2.42-1.45c2.19-3.67,4.53-7.28,6.96-10.73l2.31,1.62
			C225.04,193.85,222.74,197.4,220.58,201.01z M1112.95,200.6c-1.44-3.89-3.06-7.8-4.82-11.62l2.56-1.18
			c1.78,3.88,3.43,7.86,4.9,11.82L1112.95,200.6z M636.46,196.48c-0.54-0.01-1.01,0-1.52-0.01l0.04-2.82c0.5,0.01,1,0.02,1.49,0.01
			c3.66,0,7.36-0.19,11.01-0.56l0.29,2.8C644.02,196.28,640.21,196.48,636.46,196.48z M622.13,195.57
			c-4.17-0.53-8.41-1.3-12.62-2.29l0.65-2.74c4.11,0.97,8.26,1.72,12.33,2.24L622.13,195.57z M660.42,193.9l-0.59-2.76
			c3.99-0.86,8.06-1.96,12.09-3.26l0.87,2.68C668.66,191.89,664.5,193.02,660.42,193.9z M597.18,189.95
			c-3.89-1.14-7.99-2.41-12.16-3.78l0.88-2.68c4.15,1.36,8.21,2.62,12.08,3.75L597.18,189.95z M684.77,186.07l-1.1-2.6
			c3.72-1.58,7.55-3.38,11.38-5.35l1.29,2.51C692.45,182.64,688.56,184.47,684.77,186.07z M572.97,182.04
			c-3.82-1.36-7.72-2.79-11.94-4.39l1-2.64c4.2,1.58,8.09,3.01,11.89,4.37L572.97,182.04z M235.04,180.44l-2.18-1.79
			c2.7-3.29,5.57-6.5,8.51-9.55l2.03,1.96C240.51,174.05,237.7,177.21,235.04,180.44z M1102.46,177.76c-2-3.62-4.17-7.25-6.46-10.79
			l2.37-1.53c2.32,3.59,4.53,7.28,6.56,10.96L1102.46,177.76z M707.51,174.45l-1.44-2.43c3.46-2.05,7.06-4.3,10.7-6.69l1.55,2.36
			C714.65,170.11,711.01,172.38,707.51,174.45z M549.17,173.08c-3.92-1.54-7.85-3.11-11.81-4.7l1.05-2.62
			c3.94,1.59,7.87,3.15,11.78,4.69L549.17,173.08z M525.59,163.62l-11.75-4.77l1.06-2.61l11.75,4.77L525.59,163.62z M252.47,162.35
			l-1.87-2.11c3.18-2.82,6.51-5.54,9.89-8.1l1.7,2.25C258.86,156.9,255.59,159.58,252.47,162.35z M728.85,160.5l-1.63-2.3
			c3.24-2.3,6.59-4.73,10.23-7.45l1.69,2.26C735.47,155.74,732.11,158.19,728.85,160.5z M1088.81,156.63
			c-2.48-3.32-5.11-6.63-7.84-9.85l2.15-1.82c2.77,3.26,5.44,6.62,7.95,9.99L1088.81,156.63z M502.08,154.11
			c-3.92-1.57-7.85-3.12-11.8-4.65l1.02-2.63c3.95,1.53,7.89,3.09,11.82,4.66L502.08,154.11z M272.5,147.21l-1.52-2.37
			c3.54-2.27,7.25-4.46,11.01-6.49l1.34,2.48C279.63,142.82,275.99,144.97,272.5,147.21z M749.26,145.31l-1.72-2.23
			c3.33-2.57,6.66-5.17,10.01-7.79l1.74,2.22C755.94,140.14,752.6,142.74,749.26,145.31z M478.44,144.95
			c-4.11-1.53-8.12-2.99-11.91-4.32l0.94-2.66c3.81,1.34,7.84,2.8,11.96,4.34L478.44,144.95z M1072.53,137.43
			c-2.88-3-5.9-5.98-8.98-8.84l1.92-2.07c3.12,2.9,6.18,5.91,9.09,8.96L1072.53,137.43z M454.53,136.55
			c-4.11-1.35-8.18-2.62-12.08-3.78l0.8-2.7c3.93,1.17,8.02,2.45,12.16,3.8L454.53,136.55z M294.59,135.23l-1.16-2.57
			c3.89-1.76,7.87-3.39,11.84-4.84l0.97,2.65C302.34,131.9,298.42,133.5,294.59,135.23z M769.28,129.68l-1.74-2.22
			c3.33-2.6,6.68-5.21,10.05-7.8l1.72,2.23C775.95,124.48,772.61,127.08,769.28,129.68z M430.26,129.35
			c-4.15-1.09-8.28-2.09-12.29-2.99l0.61-2.75c4.04,0.9,8.21,1.91,12.39,3.01L430.26,129.35z M318.2,126.59l-0.77-2.71
			c4.07-1.15,8.26-2.16,12.43-3.01l0.56,2.76C326.31,124.46,322.2,125.46,318.2,126.59z M405.58,123.88
			c-4.21-0.75-8.41-1.39-12.48-1.91l0.36-2.8c4.11,0.52,8.36,1.17,12.62,1.93L405.58,123.88z M342.83,121.6l-0.35-2.8
			c4.18-0.53,8.46-0.92,12.73-1.15l0.15,2.82C351.16,120.69,346.94,121.08,342.83,121.6z M380.55,120.71
			c-4.24-0.3-8.48-0.48-12.59-0.53l0.03-2.82c4.17,0.05,8.46,0.23,12.76,0.53L380.55,120.71z M1054.09,120.27
			c-3.2-2.66-6.54-5.29-9.91-7.8l1.69-2.26c3.41,2.54,6.79,5.2,10.03,7.89L1054.09,120.27z M789.41,114.23l-1.69-2.26
			c3.61-2.69,6.98-5.15,10.29-7.5l1.63,2.3C796.36,109.11,793.01,111.55,789.41,114.23z M1033.87,105.2
			c-3.48-2.32-7.08-4.59-10.68-6.73l1.44-2.42c3.65,2.17,7.28,4.46,10.8,6.81L1033.87,105.2z M810.06,99.58l-1.57-2.35
			c3.64-2.43,7.25-4.75,10.72-6.89l1.48,2.4C817.25,94.87,813.67,97.17,810.06,99.58z M1012.17,92.28
			c-3.7-1.96-7.51-3.85-11.32-5.62l1.19-2.56c3.85,1.79,7.7,3.7,11.45,5.68L1012.17,92.28z M831.59,86.37l-1.37-2.46
			c3.79-2.1,7.59-4.1,11.31-5.92l1.24,2.53C839.09,82.32,835.33,84.28,831.59,86.37z M989.26,81.62c-3.89-1.58-7.87-3.07-11.82-4.43
			l0.92-2.67c3.99,1.38,8.01,2.89,11.95,4.48L989.26,81.62z M854.23,75.3l-1.09-2.6c3.88-1.62,7.94-3.07,12.08-4.32l0.81,2.7
			C862,72.29,858.02,73.71,854.23,75.3z M965.42,73.39c-4.05-1.16-8.16-2.22-12.22-3.14l0.63-2.75c4.11,0.94,8.27,2.01,12.37,3.18
			L965.42,73.39z M878.22,68.03l-0.56-2.77c4.11-0.83,8.37-1.49,12.66-1.97l0.32,2.8C886.43,66.57,882.25,67.22,878.22,68.03z
			 M940.83,67.8c-4.17-0.7-8.37-1.27-12.49-1.7l0.29-2.8c4.17,0.44,8.43,1.01,12.66,1.72L940.83,67.8z M915.77,65.21
			c-4.23-0.16-8.5-0.17-12.59-0.03l-0.1-2.82c4.16-0.14,8.49-0.13,12.79,0.03L915.77,65.21z"/>
	</g>
	<path class="st31" d="M780.92,565.7v7.02l-25.72,30.71H616.34c-20.35,0-37-16.65-37-36.99v-0.75H780.92z"/>
	<path class="st28" d="M755.2,603.44c0,0-17.71,29.6-57.77,29.6c-30.26,0-48.03-19.87-54.91-29.6H755.2z"/>
	<g>
		<path class="st28" d="M498.9,554.53L498.9,554.53c-2.45,0-4.45,2-4.45,4.45v30.59c0,2.45,2,4.45,4.45,4.45h0
			c2.45,0,4.45-2,4.45-4.45v-30.59C503.35,556.53,501.35,554.53,498.9,554.53z"/>
		<path class="st28" d="M514.28,554.53L514.28,554.53c-2.45,0-4.45,2-4.45,4.45v30.59c0,2.45,2,4.45,4.45,4.45l0,0
			c2.45,0,4.45-2,4.45-4.45v-30.59C518.74,556.53,516.73,554.53,514.28,554.53z"/>
		<path class="st28" d="M529.67,554.53L529.67,554.53c-2.45,0-4.45,2-4.45,4.45v30.59c0,2.45,2,4.45,4.45,4.45l0,0
			c2.45,0,4.45-2,4.45-4.45v-30.59C534.12,556.53,532.12,554.53,529.67,554.53z"/>
		<path class="st28" d="M545.05,554.53L545.05,554.53c-2.45,0-4.45,2-4.45,4.45v30.59c0,2.45,2,4.45,4.45,4.45l0,0
			c2.45,0,4.45-2,4.45-4.45v-30.59C549.51,556.53,547.5,554.53,545.05,554.53z"/>
		<path class="st28" d="M560.44,554.53L560.44,554.53c-2.45,0-4.45,2-4.45,4.45v30.59c0,2.45,2,4.45,4.45,4.45l0,0
			c2.45,0,4.45-2,4.45-4.45v-30.59C564.89,556.53,562.89,554.53,560.44,554.53z"/>
	</g>
	<g>
		<path class="st32" d="M533.33,53.13c-0.35-3.57-3.58-6.18-7.16-6.18h-2.41c-1.59,0-2.92-1.13-3.29-2.68
			c-1.54-6.32-8.38-11.08-16.6-11.08c-3.54,0-6.82,0.89-9.53,2.41c-0.38,0.21-0.76,0.44-1.11,0.68c-0.13,0.03-0.25,0.04-0.39,0.04
			c-0.65,0-1.21-0.3-1.57-0.78c-0.03-0.71-0.1-1.4-0.21-2.07c-1.86-11.91-14.42-21.12-29.64-21.12c-11.91,0-22.17,5.64-26.96,13.8
			c-0.78,1.33-2.4,1.86-3.88,1.42c-2.4-0.69-4.99-1.07-7.7-1.07c-8.73,0-16.24,3.95-19.8,9.67c-0.92,1.47-2.74,2.04-4.33,1.34
			c-2.75-1.24-6.09-1.97-9.69-1.97c-8.36,0-15.33,3.91-16.95,9.11c-0.42,1.4-1.8,2.3-3.27,2.3h-5.2c-3.58,0-6.81,2.61-7.16,6.18
			c-0.42,4.09,2.82,7.59,6.84,7.59h163.17C530.51,60.72,533.76,57.22,533.33,53.13z"/>
		<path class="st32" d="M585.3,232.01c-0.35-3.57-3.58-6.18-7.16-6.18h-2.41c-1.59,0-2.92-1.13-3.29-2.68
			c-1.54-6.32-8.38-11.08-16.6-11.08c-3.54,0-6.82,0.89-9.53,2.41c-0.38,0.21-0.76,0.44-1.11,0.68c-0.13,0.03-0.25,0.04-0.39,0.04
			c-0.65,0-1.21-0.3-1.57-0.78c-0.03-0.71-0.1-1.4-0.21-2.07c-1.86-11.91-14.42-21.12-29.64-21.12c-11.91,0-22.17,5.64-26.96,13.8
			c-0.78,1.33-2.4,1.86-3.88,1.42c-2.4-0.69-4.99-1.07-7.7-1.07c-8.73,0-16.24,3.95-19.8,9.67c-0.92,1.47-2.74,2.04-4.33,1.34
			c-2.75-1.24-6.09-1.97-9.69-1.97c-8.36,0-15.33,3.91-16.95,9.11c-0.42,1.4-1.8,2.3-3.27,2.3h-5.2c-3.58,0-6.81,2.61-7.16,6.18
			c-0.42,4.09,2.82,7.59,6.84,7.59h163.17C582.48,239.6,585.73,236.1,585.3,232.01z"/>
		<path class="st32" d="M191.29,311.78c-0.35-3.57-3.58-6.18-7.16-6.18h-2.41c-1.59,0-2.92-1.13-3.29-2.68
			c-1.54-6.32-8.38-11.08-16.6-11.08c-3.54,0-6.82,0.89-9.53,2.41c-0.38,0.21-0.76,0.44-1.11,0.68c-0.13,0.03-0.25,0.04-0.39,0.04
			c-0.65,0-1.21-0.3-1.57-0.78c-0.03-0.71-0.1-1.4-0.21-2.07C147.16,280.21,134.6,271,119.38,271c-11.91,0-22.17,5.64-26.96,13.8
			c-0.78,1.33-2.4,1.86-3.88,1.42c-2.4-0.69-4.99-1.07-7.7-1.07c-8.73,0-16.24,3.95-19.8,9.67c-0.92,1.47-2.74,2.04-4.33,1.34
			c-2.75-1.24-6.09-1.97-9.69-1.97c-8.36,0-15.33,3.91-16.95,9.11c-0.42,1.4-1.8,2.3-3.27,2.3h-5.2c-3.58,0-6.81,2.61-7.16,6.18
			c-0.42,4.09,2.82,7.59,6.84,7.59h163.17C188.47,319.37,191.72,315.87,191.29,311.78z"/>
		<path class="st32" d="M1227.04,485.58c-0.35-3.57-3.58-6.18-7.16-6.18h-2.41c-1.59,0-2.92-1.13-3.29-2.68
			c-1.54-6.32-8.38-11.08-16.6-11.08c-3.54,0-6.82,0.89-9.53,2.41c-0.38,0.21-0.76,0.44-1.11,0.68c-0.13,0.03-0.25,0.04-0.39,0.04
			c-0.65,0-1.21-0.3-1.57-0.78c-0.03-0.71-0.1-1.4-0.21-2.07c-1.86-11.92-14.42-21.12-29.64-21.12c-11.91,0-22.17,5.64-26.96,13.8
			c-0.78,1.33-2.4,1.86-3.88,1.42c-2.4-0.69-4.99-1.07-7.7-1.07c-8.73,0-16.24,3.95-19.8,9.67c-0.92,1.47-2.74,2.04-4.33,1.34
			c-2.75-1.24-6.09-1.97-9.69-1.97c-8.36,0-15.33,3.91-16.95,9.11c-0.42,1.4-1.8,2.3-3.27,2.3h-5.2c-3.58,0-6.81,2.61-7.16,6.18
			c-0.42,4.09,2.82,7.59,6.84,7.59h163.17C1224.22,493.16,1227.46,489.66,1227.04,485.58z"/>
		<path class="st32" d="M699.2,73.71l-16.57-2.98c-0.3-3.82-1.14-7.55-2.42-11.07l13.83-9.62c0.8-0.56,1-1.65,0.44-2.46
			l-10.27-14.77c-0.56-0.8-1.65-1-2.46-0.44l-13.85,9.63c-2.84-2.43-6.04-4.51-9.52-6.12l2.98-16.58c0.17-0.96-0.46-1.89-1.42-2.06
			l-17.7-3.18c-0.96-0.17-1.89,0.48-2.06,1.43l-2.98,16.6c-3.82,0.3-7.52,1.13-11.04,2.42l-9.63-13.85c-0.56-0.8-1.67-1-2.47-0.44
			L599.32,30.5c-0.8,0.56-1,1.65-0.44,2.46l9.62,13.83c-2.43,2.84-4.51,6.05-6.12,9.53l-16.57-2.98c-0.97-0.17-1.89,0.46-2.06,1.42
			l-3.18,17.7c-0.17,0.96,0.47,1.87,1.44,2.05l16.56,2.97c0.3,3.84,1.12,7.55,2.42,11.08l-13.82,9.61c-0.8,0.56-1,1.67-0.44,2.47
			l10.26,14.75c0.56,0.8,1.67,1,2.47,0.44l13.8-9.6c2.86,2.43,6.05,4.51,9.54,6.13l-2.97,16.54c-0.17,0.96,0.48,1.89,1.43,2.06
			l17.7,3.18c0.96,0.17,1.88-0.48,2.05-1.44l2.97-16.53c3.84-0.31,7.57-1.13,11.1-2.43l9.6,13.8c0.56,0.8,1.65,1,2.46,0.44
			l14.76-10.26c0.8-0.56,1-1.67,0.44-2.47l-9.61-13.82c2.45-2.86,4.51-6.05,6.13-9.54l16.56,2.97c0.96,0.17,1.87-0.47,2.05-1.42
			l3.18-17.7C700.8,74.8,700.16,73.88,699.2,73.71z M637.55,91.06c-9.37-1.68-15.6-10.64-13.92-19.99
			c1.68-9.37,10.64-15.6,20.01-13.91c9.35,1.68,15.58,10.63,13.9,20C655.86,86.51,646.91,92.74,637.55,91.06z"/>
		<path class="st32" d="M770.62,159.03l-8.69-1.97c-0.07-2.03-0.42-4.02-1.02-5.91l7.54-4.76c0.44-0.28,0.57-0.85,0.29-1.29
			l-5.08-8.05c-0.28-0.44-0.85-0.57-1.29-0.29l-7.55,4.76c-1.45-1.35-3.08-2.53-4.88-3.46l1.97-8.7c0.11-0.5-0.2-1.01-0.7-1.12
			l-9.28-2.1c-0.5-0.11-1.01,0.21-1.12,0.71l-1.97,8.7c-2.03,0.07-4,0.42-5.89,1.01l-4.76-7.55c-0.28-0.44-0.86-0.57-1.3-0.29
			l-8.04,5.08c-0.44,0.28-0.57,0.85-0.29,1.29l4.76,7.54c-1.35,1.45-2.53,3.09-3.46,4.89l-8.69-1.97c-0.51-0.12-1.01,0.2-1.12,0.7
			l-2.1,9.28c-0.11,0.5,0.2,1,0.71,1.12l8.68,1.97c0.07,2.03,0.41,4.02,1.02,5.91l-7.53,4.75c-0.44,0.28-0.57,0.86-0.29,1.3
			l5.07,8.04c0.28,0.44,0.86,0.57,1.3,0.29l7.52-4.75c1.45,1.35,3.09,2.53,4.9,3.47l-1.96,8.67c-0.11,0.5,0.21,1.01,0.71,1.12
			l9.28,2.1c0.5,0.11,1-0.21,1.12-0.71l1.96-8.67c2.04-0.07,4.03-0.42,5.92-1.02l4.75,7.52c0.28,0.44,0.85,0.57,1.29,0.29l8.05-5.07
			c0.44-0.28,0.57-0.86,0.29-1.3l-4.75-7.53c1.36-1.45,2.53-3.09,3.47-4.9l8.68,1.97c0.5,0.11,1-0.2,1.12-0.7l2.1-9.28
			C771.43,159.65,771.12,159.15,770.62,159.03z M737.62,166.74c-4.91-1.11-7.99-5.99-6.88-10.9c1.11-4.91,5.99-7.99,10.91-6.88
			c4.9,1.11,7.98,5.99,6.87,10.9C747.4,164.77,742.52,167.85,737.62,166.74z"/>
		<path class="st32" d="M131.11,203.2l-10.96-3.89c0.22-2.64,0.08-5.28-0.41-7.82l10.51-5c0.61-0.29,0.87-1.02,0.58-1.63
			l-5.34-11.22c-0.29-0.61-1.02-0.87-1.63-0.58l-10.53,5.01c-1.67-1.98-3.61-3.75-5.8-5.24l3.9-10.97c0.22-0.63-0.1-1.34-0.74-1.56
			l-11.71-4.16c-0.63-0.23-1.34,0.11-1.57,0.75l-3.9,10.98c-2.64-0.22-5.26-0.08-7.8,0.41l-5.01-10.53
			c-0.29-0.61-1.02-0.87-1.63-0.58l-11.22,5.34c-0.61,0.29-0.87,1.02-0.58,1.63l5,10.51c-1.98,1.67-3.76,3.62-5.25,5.81l-10.96-3.89
			c-0.64-0.23-1.34,0.1-1.56,0.74L50.36,189c-0.23,0.63,0.11,1.33,0.75,1.56l10.96,3.89c-0.23,2.65-0.08,5.27,0.41,7.83l-10.5,5
			c-0.61,0.29-0.87,1.02-0.58,1.63l5.34,11.21c0.29,0.61,1.02,0.87,1.63,0.58l10.49-4.99c1.68,1.98,3.62,3.76,5.82,5.25l-3.89,10.95
			c-0.22,0.63,0.11,1.34,0.75,1.57l11.71,4.16c0.63,0.23,1.33-0.12,1.56-0.75l3.88-10.94c2.65,0.22,5.29,0.08,7.84-0.41l4.99,10.49
			c0.29,0.61,1.02,0.87,1.63,0.58l11.22-5.33c0.61-0.29,0.87-1.02,0.58-1.63l-5-10.5c1.99-1.67,3.76-3.62,5.25-5.82l10.96,3.89
			c0.63,0.23,1.33-0.11,1.56-0.74l4.16-11.71C132.08,204.12,131.75,203.42,131.11,203.2z M87.12,208.09
			c-6.2-2.2-9.44-9.01-7.24-15.2c2.2-6.2,9.01-9.44,15.21-7.24c6.19,2.2,9.43,9,7.23,15.2C100.12,207.05,93.31,210.29,87.12,208.09z
			"/>
		<path class="st32" d="M1243.42,317.48l-11.66-2.28c-0.17-2.7-0.72-5.34-1.59-7.84l9.87-6.64c0.57-0.39,0.72-1.16,0.34-1.73
			l-7.09-10.53c-0.39-0.57-1.16-0.72-1.73-0.34l-9.88,6.65c-1.98-1.75-4.21-3.25-6.65-4.42l2.28-11.67
			c0.13-0.67-0.31-1.34-0.98-1.47l-12.45-2.44c-0.67-0.13-1.34,0.32-1.47,0.99l-2.29,11.68c-2.7,0.17-5.32,0.71-7.81,1.58
			l-6.65-9.88c-0.38-0.57-1.17-0.73-1.74-0.34l-10.52,7.09c-0.57,0.38-0.72,1.16-0.34,1.73l6.64,9.87
			c-1.75,1.98-3.25,4.22-4.43,6.66l-11.66-2.28c-0.68-0.13-1.34,0.31-1.47,0.98l-2.44,12.45c-0.13,0.67,0.31,1.33,0.99,1.46
			l11.65,2.28c0.17,2.71,0.71,5.34,1.59,7.85l-9.86,6.63c-0.57,0.39-0.73,1.17-0.34,1.74l7.08,10.52c0.39,0.57,1.17,0.73,1.74,0.34
			l9.84-6.62c1.99,1.75,4.22,3.25,6.67,4.43l-2.28,11.64c-0.13,0.67,0.32,1.34,0.99,1.47l12.45,2.44c0.67,0.13,1.33-0.32,1.46-0.99
			l2.28-11.63c2.71-0.18,5.35-0.72,7.86-1.6l6.62,9.85c0.39,0.57,1.16,0.72,1.73,0.34l10.53-7.08c0.57-0.38,0.73-1.17,0.34-1.74
			l-6.63-9.86c1.76-1.99,3.25-4.22,4.43-6.67l11.65,2.28c0.67,0.13,1.33-0.31,1.46-0.98l2.44-12.45
			C1244.54,318.26,1244.1,317.61,1243.42,317.48z M1199.72,329.05c-6.59-1.29-10.89-7.68-9.6-14.26c1.29-6.59,7.68-10.89,14.27-9.6
			c6.58,1.29,10.88,7.68,9.59,14.27C1212.69,326.04,1206.31,330.34,1199.72,329.05z"/>
	</g>
	<g>
		<g>
			<g>
				<polygon class="st33" points="1150.06,34.18 1149.89,33.88 1147.96,32.8 1150.2,28.79 1152.5,32.76 1150.58,33.87 
					1150.42,34.18 1150.24,34.08 				"/>
			</g>
			<g>
				<path class="st33" d="M1139.43,53.79l-2.46-1.38l1.83-3.27l2.46,1.38L1139.43,53.79z M1143.09,47.26l-2.46-1.38l1.83-3.27
					l2.46,1.38L1143.09,47.26z M1146.75,40.72l-2.46-1.38l1.83-3.27l2.46,1.38L1146.75,40.72z"/>
			</g>
			<g>
				<polygon class="st33" points="1137.45,59.63 1132.93,59.63 1135.14,55.69 1137.15,56.81 1137.45,56.81 1137.45,56.98 
					1137.6,57.06 1137.45,57.33 				"/>
			</g>
			<g>
				<path class="st33" d="M1159.8,59.63h-3.72v-2.82h3.72V59.63z M1152.35,59.63h-3.72v-2.82h3.72V59.63z M1144.9,59.63h-3.72v-2.82
					h3.72V59.63z"/>
			</g>
			<g>
				<polygon class="st33" points="1168.08,59.63 1163.52,59.63 1163.52,57.39 1163.35,57.1 1163.52,57 1163.52,56.81 1163.85,56.81 
					1165.79,55.68 				"/>
			</g>
			<g>
				<path class="st33" d="M1161.45,53.82l-1.9-3.27l2.44-1.41l1.9,3.27L1161.45,53.82z M1157.66,47.28l-1.9-3.27l2.44-1.41l1.9,3.27
					L1157.66,47.28z M1153.86,40.73l-1.9-3.27l2.44-1.42l1.9,3.27L1153.86,40.73z"/>
			</g>
		</g>
		<g>
			<path class="st33" d="M1097.01,71.8c-1.47-0.21-2.91-0.63-4.26-1.24l1.17-2.57c1.11,0.51,2.28,0.85,3.49,1.02L1097.01,71.8z
				 M1101.44,71.79l-0.4-2.79c1.21-0.17,2.38-0.52,3.49-1.03l1.18,2.56C1104.35,71.16,1102.92,71.58,1101.44,71.79z M1089.01,68.16
				c-1.13-0.97-2.11-2.1-2.91-3.35l2.37-1.53c0.66,1.02,1.46,1.95,2.39,2.75L1089.01,68.16z M1109.43,68.14l-1.85-2.13
				c0.92-0.8,1.72-1.72,2.38-2.75l2.37,1.53C1111.54,66.03,1110.56,67.16,1109.43,68.14z M1084.24,60.78
				c-0.42-1.42-0.63-2.9-0.64-4.39l2.82,0c0,1.22,0.18,2.43,0.52,3.6L1084.24,60.78z M1114.18,60.74l-2.71-0.79
				c0.34-1.17,0.51-2.38,0.51-3.6l2.82-0.06l-0.01,0.16C1114.81,57.84,1114.6,59.32,1114.18,60.74z M1086.94,52.78l-2.71-0.79
				c0.41-1.43,1.03-2.79,1.84-4.04l2.37,1.52C1087.78,50.5,1087.28,51.61,1086.94,52.78z M1111.46,52.7
				c-0.35-1.17-0.86-2.28-1.52-3.3l2.37-1.54c0.81,1.25,1.44,2.61,1.86,4.03L1111.46,52.7z M1090.82,46.71l-1.85-2.13
				c1.12-0.98,2.38-1.79,3.73-2.41l1.18,2.56C1092.76,45.25,1091.74,45.91,1090.82,46.71z M1107.55,46.66
				c-0.93-0.8-1.96-1.46-3.07-1.96l1.17-2.57c1.35,0.61,2.61,1.42,3.74,2.39L1107.55,46.66z M1097.35,43.7l-0.4-2.79
				c0.74-0.11,1.5-0.16,2.25-0.16c0.01,0,0.01,0,0.02,0c0.72,0,1.45,0.05,2.17,0.15l-0.39,2.79c-0.59-0.08-1.19-0.12-1.78-0.12
				c0,0-0.01,0-0.01,0C1098.58,43.57,1097.96,43.62,1097.35,43.7z"/>
		</g>
		<g>
			<path class="st33" d="M1168.28,114.25c-1.48-0.21-2.91-0.63-4.26-1.24l1.17-2.57c1.11,0.5,2.28,0.85,3.49,1.02L1168.28,114.25z
				 M1172.72,114.25l-0.4-2.79c1.21-0.17,2.38-0.52,3.49-1.03l1.18,2.56C1175.63,113.61,1174.19,114.04,1172.72,114.25z
				 M1160.29,110.61c-1.13-0.97-2.11-2.1-2.91-3.35l2.37-1.53c0.66,1.02,1.46,1.95,2.39,2.75L1160.29,110.61z M1180.71,110.59
				l-1.85-2.13c0.92-0.8,1.72-1.72,2.38-2.75l2.37,1.53C1182.81,108.49,1181.83,109.61,1180.71,110.59z M1155.52,103.23
				c-0.42-1.42-0.63-2.9-0.64-4.39l2.82,0c0,1.22,0.18,2.43,0.52,3.6L1155.52,103.23z M1185.46,103.2l-2.71-0.79
				c0.34-1.17,0.51-2.38,0.51-3.6l2.82-0.06v0.06C1186.09,100.3,1185.88,101.77,1185.46,103.2z M1158.21,95.23l-2.71-0.79
				c0.41-1.43,1.03-2.79,1.84-4.04l2.37,1.52C1159.06,92.95,1158.55,94.06,1158.21,95.23z M1182.74,95.16
				c-0.35-1.17-0.86-2.28-1.52-3.3l2.37-1.54c0.81,1.25,1.44,2.61,1.86,4.03L1182.74,95.16z M1162.09,89.17l-1.85-2.13
				c1.12-0.98,2.38-1.79,3.72-2.41l1.18,2.56C1164.04,87.7,1163.01,88.36,1162.09,89.17z M1178.82,89.12
				c-0.93-0.8-1.96-1.46-3.07-1.96l1.17-2.57c1.35,0.61,2.61,1.42,3.74,2.39L1178.82,89.12z M1168.63,86.16l-0.4-2.79
				c1.46-0.21,2.97-0.22,4.44-0.01l-0.39,2.79C1171.07,85.98,1169.83,85.98,1168.63,86.16z"/>
		</g>
		<g>
			<g>
				<polygon class="st33" points="134.33,479.06 134.16,478.76 132.22,477.67 134.47,473.67 136.77,477.64 134.85,478.75 
					134.69,479.05 134.51,478.95 				"/>
			</g>
			<g>
				<path class="st33" d="M123.7,498.67l-2.46-1.38l1.83-3.27l2.46,1.38L123.7,498.67z M127.36,492.13l-2.46-1.38l1.83-3.27
					l2.46,1.38L127.36,492.13z M131.02,485.59l-2.46-1.38l1.83-3.27l2.46,1.38L131.02,485.59z"/>
			</g>
			<g>
				<polygon class="st33" points="121.72,504.51 117.2,504.51 119.41,500.56 121.41,501.69 121.72,501.69 121.72,501.86 
					121.87,501.94 121.72,502.21 				"/>
			</g>
			<g>
				<path class="st33" d="M144.06,504.51h-3.72v-2.82h3.72V504.51z M136.62,504.51h-3.72v-2.82h3.72V504.51z M129.17,504.51h-3.72
					v-2.82h3.72V504.51z"/>
			</g>
			<g>
				<polygon class="st33" points="152.35,504.51 147.79,504.51 147.79,502.26 147.62,501.97 147.79,501.88 147.79,501.69 
					148.12,501.69 150.06,500.56 				"/>
			</g>
			<g>
				<path class="st33" d="M145.72,498.7l-1.9-3.27l2.44-1.41l1.9,3.27L145.72,498.7z M141.93,492.15l-1.9-3.27l2.44-1.41l1.9,3.27
					L141.93,492.15z M138.13,485.6l-1.9-3.27l2.44-1.42l1.9,3.27L138.13,485.6z"/>
			</g>
		</g>
		<g>
			<path class="st33" d="M81.28,516.67c-1.47-0.21-2.91-0.63-4.26-1.24l1.17-2.57c1.11,0.51,2.28,0.85,3.49,1.02L81.28,516.67z
				 M85.71,516.67l-0.4-2.79c1.2-0.17,2.38-0.52,3.49-1.02l1.17,2.56C88.62,516.04,87.18,516.46,85.71,516.67z M73.28,513.03
				c-1.13-0.97-2.11-2.1-2.91-3.35l2.37-1.53c0.66,1.02,1.46,1.95,2.39,2.75L73.28,513.03z M93.7,513.01l-1.85-2.13
				c0.92-0.8,1.72-1.73,2.38-2.75l2.37,1.53C95.81,510.91,94.83,512.04,93.7,513.01z M68.52,505.65c-0.42-1.42-0.63-2.9-0.63-4.39
				l2.82-0.01c0,1.23,0.18,2.44,0.52,3.6L68.52,505.65z M98.45,505.62l-2.71-0.79c0.34-1.17,0.51-2.38,0.51-3.6l2.82-0.06v0.06
				C99.08,502.72,98.87,504.2,98.45,505.62z M71.21,497.65l-2.71-0.79c0.42-1.43,1.03-2.79,1.84-4.04l2.37,1.52
				C72.05,495.37,71.55,496.48,71.21,497.65z M95.73,497.58c-0.35-1.16-0.86-2.28-1.52-3.3l2.37-1.54c0.81,1.25,1.44,2.61,1.86,4.03
				L95.73,497.58z M75.09,491.59l-1.85-2.13c1.12-0.98,2.38-1.79,3.73-2.41l1.18,2.56C77.04,490.12,76.01,490.79,75.09,491.59z
				 M91.82,491.54c-0.93-0.8-1.96-1.46-3.07-1.96l1.16-2.57c1.35,0.61,2.61,1.42,3.74,2.39L91.82,491.54z M81.62,488.58l-0.4-2.79
				c1.45-0.21,2.97-0.22,4.44-0.01l-0.39,2.79C84.06,488.4,82.81,488.41,81.62,488.58z"/>
		</g>
		<g>
			<path class="st33" d="M152.55,559.13c-1.47-0.21-2.91-0.63-4.26-1.24l1.17-2.57c1.11,0.51,2.28,0.85,3.49,1.02L152.55,559.13z
				 M156.99,559.12l-0.4-2.79c1.2-0.17,2.38-0.52,3.49-1.02l1.17,2.56C159.89,558.49,158.46,558.91,156.99,559.12z M144.56,555.49
				c-1.13-0.97-2.1-2.1-2.91-3.35l2.37-1.53c0.66,1.02,1.47,1.95,2.39,2.75L144.56,555.49z M164.98,555.47l-1.85-2.13
				c0.92-0.8,1.72-1.73,2.38-2.75l2.37,1.53C167.08,553.36,166.1,554.49,164.98,555.47z M139.79,548.11
				c-0.42-1.42-0.63-2.9-0.64-4.39l2.82,0c0,1.22,0.18,2.43,0.52,3.6L139.79,548.11z M169.73,548.07l-2.71-0.79
				c0.34-1.17,0.51-2.38,0.51-3.6l2.82-0.06v0.06C170.35,545.17,170.14,546.65,169.73,548.07z M142.48,540.11l-2.71-0.79
				c0.41-1.43,1.03-2.79,1.84-4.04l2.37,1.52C143.32,537.83,142.82,538.94,142.48,540.11z M167.01,540.03
				c-0.35-1.16-0.86-2.27-1.52-3.3l2.37-1.54c0.81,1.25,1.44,2.61,1.86,4.03L167.01,540.03z M146.36,534.04l-1.85-2.13
				c1.12-0.98,2.38-1.79,3.72-2.41l1.18,2.56C148.31,532.58,147.28,533.24,146.36,534.04z M163.09,533.99
				c-0.93-0.8-1.96-1.46-3.07-1.96l1.16-2.57c1.35,0.61,2.61,1.42,3.74,2.39L163.09,533.99z M152.89,531.03l-0.4-2.79
				c1.46-0.21,2.97-0.22,4.43-0.01l-0.39,2.79C155.34,530.86,154.1,530.86,152.89,531.03z"/>
		</g>
	</g>
	<path class="st34" d="M1057.86,1010.7H937.59c-2.33,0-4.23-1.9-4.23-4.23V808.03c0-2.33,1.9-4.23,4.23-4.23h120.26
		c2.33,0,4.23,1.9,4.23,4.23v198.44C1062.09,1008.8,1060.18,1010.7,1057.86,1010.7z"/>
	<circle class="st35" cx="950.39" cy="831.63" r="3.09"/>
	<circle class="st36" cx="950.39" cy="839.91" r="2.19"/>
	<path class="st36" d="M1043.73,840.72h-75.07c-2.73,0-4.96-2.23-4.96-4.96l0,0c0-2.73,2.23-4.96,4.96-4.96h75.07
		c2.73,0,4.96,2.23,4.96,4.96l0,0C1048.69,838.49,1046.46,840.72,1043.73,840.72z"/>
	<circle class="st37" cx="950.39" cy="855.77" r="3.09"/>
	<circle class="st36" cx="950.39" cy="864.06" r="2.19"/>
	<path class="st36" d="M1043.73,864.87h-75.07c-2.73,0-4.96-2.23-4.96-4.96l0,0c0-2.73,2.23-4.96,4.96-4.96h75.07
		c2.73,0,4.96,2.23,4.96,4.96l0,0C1048.69,862.64,1046.46,864.87,1043.73,864.87z"/>
	<circle class="st35" cx="950.39" cy="879.92" r="3.09"/>
	<circle class="st36" cx="950.39" cy="888.2" r="2.19"/>
	<path class="st36" d="M1043.73,889.01h-75.07c-2.73,0-4.96-2.23-4.96-4.96l0,0c0-2.73,2.23-4.96,4.96-4.96h75.07
		c2.73,0,4.96,2.23,4.96,4.96l0,0C1048.69,886.78,1046.46,889.01,1043.73,889.01z"/>
	<circle class="st37" cx="950.39" cy="904.06" r="3.09"/>
	<circle class="st36" cx="950.39" cy="912.35" r="2.19"/>
	<path class="st36" d="M1043.73,913.16h-75.07c-2.73,0-4.96-2.23-4.96-4.96v0c0-2.73,2.23-4.96,4.96-4.96h75.07
		c2.73,0,4.96,2.23,4.96,4.96v0C1048.69,910.93,1046.46,913.16,1043.73,913.16z"/>
	<circle class="st35" cx="950.39" cy="928.21" r="3.09"/>
	<circle class="st36" cx="950.39" cy="936.49" r="2.19"/>
	<path class="st36" d="M1043.73,937.3h-75.07c-2.73,0-4.96-2.23-4.96-4.96v0c0-2.73,2.23-4.96,4.96-4.96h75.07
		c2.73,0,4.96,2.23,4.96,4.96v0C1048.69,935.07,1046.46,937.3,1043.73,937.3z"/>
	<circle class="st37" cx="950.39" cy="952.35" r="3.09"/>
	<circle class="st36" cx="950.39" cy="960.64" r="2.19"/>
	<path class="st36" d="M1043.73,961.45h-75.07c-2.73,0-4.96-2.23-4.96-4.96l0,0c0-2.73,2.23-4.96,4.96-4.96h75.07
		c2.73,0,4.96,2.23,4.96,4.96l0,0C1048.69,959.22,1046.46,961.45,1043.73,961.45z"/>
	<circle class="st35" cx="950.39" cy="976.49" r="3.09"/>
	<circle class="st36" cx="950.39" cy="984.78" r="2.19"/>
	<path class="st36" d="M1043.73,985.59h-75.07c-2.73,0-4.96-2.23-4.96-4.96l0,0c0-2.73,2.23-4.96,4.96-4.96h75.07
		c2.73,0,4.96,2.23,4.96,4.96l0,0C1048.69,983.36,1046.46,985.59,1043.73,985.59z"/>
	<g>
		<polygon class="st38" points="461.72,949.26 454.67,949.26 454.67,875.34 486.71,844.19 486.71,812.5 452.68,777.07 
			452.68,710.92 459.73,710.92 459.73,774.23 493.76,809.67 493.76,847.17 461.72,878.32 		"/>
	</g>
	<g>
		<polygon class="st38" points="532.43,949.26 525.38,949.26 525.38,873.61 539.91,858.46 539.91,814.49 546.96,814.49 
			546.96,861.29 532.43,876.45 		"/>
	</g>
	<g>
		<polygon class="st38" points="606.15,949.26 599.1,949.26 599.1,788.3 565.4,753.97 565.4,702.05 572.45,702.05 572.45,751.09 
			606.15,785.42 		"/>
	</g>
	<g>
		<polygon class="st38" points="680.48,949.26 673.43,949.26 673.43,905.45 647.25,877.32 647.25,804.36 672.23,779.37 
			672.23,742.59 679.28,742.59 679.28,782.29 654.3,807.28 654.3,874.55 680.48,902.67 		"/>
	</g>
	<g>
		<polygon class="st38" points="734.66,949.26 727.61,949.26 727.61,926.78 750.76,902.81 750.76,864.08 727.61,839.6 
			727.61,782.36 734.66,782.36 734.66,836.8 757.81,861.27 757.81,905.66 734.66,929.63 		"/>
	</g>
	<g>
		<polygon class="st38" points="778.69,949.26 771.64,949.26 771.64,843.59 755.35,827.7 755.35,806.35 770.14,792.32 
			770.14,747.18 777.19,747.18 777.19,795.35 762.4,809.37 762.4,824.73 778.69,840.62 		"/>
	</g>
	<path class="st39" d="M833.7,895.09h20.57c5.75,0,10.45-4.7,10.45-10.45v0c0-5.75-4.7-10.45-10.45-10.45H833.7
		c-5.75,0-6.52,4.7-6.52,10.45v0C827.18,890.39,827.95,895.09,833.7,895.09z"/>
	<g>
		<g>
			<path class="st40" d="M385.31,150.57c0-6.13-5.02-11.15-11.15-11.15H132.67c-6.13,0-11.15,5.02-11.15,11.15v40.66h263.78V150.57z
				"/>
			<path class="st41" d="M121.52,191.23v250.46c0,6.13,5.02,11.15,11.15,11.15h241.49c6.13,0,11.15-5.02,11.15-11.15V191.23H121.52z
				"/>
			<circle class="st42" cx="366.83" cy="162.91" r="9.28"/>
			<circle class="st43" cx="340.37" cy="162.91" r="9.28"/>
			<circle class="st44" cx="313.91" cy="162.91" r="9.28"/>
		</g>
		<g>
			<g>
				<rect x="226.65" y="252.88" class="st45" width="53.52" height="3.45"/>
				<rect x="226.65" y="259.94" class="st45" width="53.52" height="3.45"/>
				<rect x="226.65" y="267" class="st45" width="53.52" height="3.45"/>
				<rect x="226.65" y="274.06" class="st45" width="53.52" height="3.45"/>
				<rect x="226.65" y="281.12" class="st45" width="53.52" height="3.45"/>
				<rect x="226.65" y="288.18" class="st45" width="53.52" height="3.45"/>
			</g>
			<g>
				<g>
					<circle class="st46" cx="197.74" cy="271" r="40.91"/>
					<circle class="st41" cx="197.74" cy="271" r="23.76"/>
					<circle class="st47" cx="197.74" cy="271" r="13.73"/>
					<circle class="st45" cx="197.74" cy="271" r="5.81"/>
				</g>
				<g>
					<circle class="st46" cx="309.09" cy="271" r="40.91"/>
					<circle class="st41" cx="309.09" cy="271" r="23.76"/>
					<circle class="st47" cx="309.09" cy="271" r="13.73"/>
					<circle class="st45" cx="309.09" cy="271" r="5.81"/>
				</g>
			</g>
		</g>
		<g>
			<path class="st48" d="M345.81,343.36H161.03c-2.7,0-4.91-2.21-4.91-4.91l0,0c0-2.7,2.21-4.91,4.91-4.91h184.78
				c2.7,0,4.91,2.21,4.91,4.91l0,0C350.71,341.15,348.51,343.36,345.81,343.36z"/>
			<path class="st48" d="M345.81,368.56H161.03c-2.7,0-4.91-2.21-4.91-4.91l0,0c0-2.7,2.21-4.91,4.91-4.91h184.78
				c2.7,0,4.91,2.21,4.91,4.91l0,0C350.71,366.35,348.51,368.56,345.81,368.56z"/>
			<path class="st48" d="M345.81,393.75H161.03c-2.7,0-4.91-2.21-4.91-4.91v0c0-2.7,2.21-4.91,4.91-4.91h184.78
				c2.7,0,4.91,2.21,4.91,4.91v0C350.71,391.54,348.51,393.75,345.81,393.75z"/>
			<path class="st48" d="M345.81,418.95H161.03c-2.7,0-4.91-2.21-4.91-4.91l0,0c0-2.7,2.21-4.91,4.91-4.91h184.78
				c2.7,0,4.91,2.21,4.91,4.91l0,0C350.71,416.74,348.51,418.95,345.81,418.95z"/>
		</g>
	</g>
	<g>
		<path class="st41" d="M867.14,184.14v394.14c0,6.98,5.71,12.69,12.69,12.69h211.97c6.98,0,12.69-5.71,12.69-12.69V184.14H867.14z"
			/>
		<g>
			<path class="st48" d="M1065.33,396.5H906.3c-2.7,0-4.91-2.21-4.91-4.91l0,0c0-2.7,2.21-4.91,4.91-4.91h159.04
				c2.7,0,4.91,2.21,4.91,4.91l0,0C1070.24,394.29,1068.03,396.5,1065.33,396.5z"/>
			<path class="st48" d="M1065.33,429.39H906.3c-2.7,0-4.91-2.21-4.91-4.91l0,0c0-2.7,2.21-4.91,4.91-4.91h159.04
				c2.7,0,4.91,2.21,4.91,4.91l0,0C1070.24,427.18,1068.03,429.39,1065.33,429.39z"/>
			<path class="st48" d="M1065.33,462.27H906.3c-2.7,0-4.91-2.21-4.91-4.91l0,0c0-2.7,2.21-4.91,4.91-4.91h159.04
				c2.7,0,4.91,2.21,4.91,4.91l0,0C1070.24,460.06,1068.03,462.27,1065.33,462.27z"/>
			<path class="st48" d="M1065.33,495.16H906.3c-2.7,0-4.91-2.21-4.91-4.91l0,0c0-2.7,2.21-4.91,4.91-4.91h159.04
				c2.7,0,4.91,2.21,4.91,4.91l0,0C1070.24,492.95,1068.03,495.16,1065.33,495.16z"/>
			<path class="st48" d="M1065.33,528.05H906.3c-2.7,0-4.91-2.21-4.91-4.91l0,0c0-2.7,2.21-4.91,4.91-4.91h159.04
				c2.7,0,4.91,2.21,4.91,4.91l0,0C1070.24,525.84,1068.03,528.05,1065.33,528.05z"/>
			<path class="st48" d="M1065.33,560.93H906.3c-2.7,0-4.91-2.21-4.91-4.91l0,0c0-2.7,2.21-4.91,4.91-4.91h159.04
				c2.7,0,4.91,2.21,4.91,4.91l0,0C1070.24,558.73,1068.03,560.93,1065.33,560.93z"/>
		</g>
		<g>
			<path class="st40" d="M1104.49,152.11c0-6.98-5.71-12.69-12.69-12.69H879.83c-6.98,0-12.69,5.71-12.69,12.69v32.03h237.35V152.11
				z"/>
			<circle class="st42" cx="1087.46" cy="159.23" r="8.25"/>
			<circle class="st43" cx="1063.93" cy="159.23" r="8.25"/>
			<circle class="st44" cx="1040.41" cy="159.23" r="8.25"/>
		</g>
		<g>
			<path class="st45" d="M1071.26,294.79h-170.9c-4.49,0-8.16-3.67-8.16-8.16l0,0c0-4.49,3.67-8.16,8.16-8.16h170.9
				c4.49,0,8.16,3.67,8.16,8.16l0,0C1079.42,291.12,1075.75,294.79,1071.26,294.79z"/>
			<path class="st45" d="M985.81,281.44L985.81,281.44c-6.63,0-12.05,5.42-12.05,12.05v41.15c0,6.63,5.42,12.05,12.05,12.05h0
				c6.63,0,12.05-5.42,12.05-12.05v-41.15C997.86,286.86,992.44,281.44,985.81,281.44z"/>
			<path class="st47" d="M1058.66,266.4v-32.56c2.64-1.35,4.45-4.09,4.45-7.26c0-4.5-3.65-8.16-8.16-8.16
				c-4.5,0-8.16,3.65-8.16,8.16c0,3.17,1.81,5.91,4.45,7.26v31.67H920.38v-31.67c2.64-1.35,4.45-4.09,4.45-7.26
				c0-4.5-3.65-8.16-8.16-8.16c-4.5,0-8.16,3.65-8.16,8.16c0,3.17,1.81,5.91,4.45,7.26v32.56c-7.35,2.39-12.71,9.31-12.71,17.43
				v6.71c0,10.08,8.25,18.33,18.33,18.33h134.44c10.08,0,18.33-8.25,18.33-18.33v-6.71C1071.37,275.71,1066.01,268.79,1058.66,266.4
				z"/>
			<path class="st33" d="M1013.37,326.67h-55.11c-22.77,0-41.4-18.63-41.4-41.4v-1.73c0-22.77,18.63-41.4,41.4-41.4h55.11
				c22.77,0,41.4,18.63,41.4,41.4v1.73C1054.77,308.04,1036.14,326.67,1013.37,326.67z"/>
			<path class="st45" d="M1019.58,293.74h-67.54c-7.07,0-12.85-5.78-12.85-12.85l0,0c0-7.07,5.78-12.85,12.85-12.85h67.54
				c7.07,0,12.85,5.78,12.85,12.85l0,0C1032.43,287.96,1026.65,293.74,1019.58,293.74z"/>
			<path class="st41" d="M1007.49,314.06h-43.36c-2.77,0-5.04-2.27-5.04-5.04v0c0-2.77,2.27-5.04,5.04-5.04h43.36
				c2.77,0,5.04,2.27,5.04,5.04v0C1012.53,311.79,1010.27,314.06,1007.49,314.06z"/>
			<g>
				<circle class="st41" cx="956.19" cy="281.44" r="8.19"/>
				<circle class="st41" cx="1015.44" cy="281.44" r="8.19"/>
			</g>
		</g>
	</g>
	<g>
		<circle class="st28" cx="456.2" cy="702.05" r="17.02"/>
		<circle class="st28" cx="568.93" cy="696.87" r="17.02"/>
		<circle class="st28" cx="675.47" cy="730.91" r="17.02"/>
		<circle class="st28" cx="731.13" cy="769.77" r="17.02"/>
		<circle class="st28" cx="773.55" cy="735.73" r="17.02"/>
		<circle class="st28" cx="543.43" cy="805.71" r="17.02"/>
	</g>
	<path class="st49" d="M883.85,966.18c0-9.31-7.61-16.92-16.92-16.92H377.39c-9.31,0-16.92,7.61-16.92,16.92v13.4h523.38V966.18z"/>
	<path class="st35" d="M360.47,979.58v14.2c0,9.31,7.61,16.92,16.92,16.92h489.54c9.31,0,16.92-7.61,16.92-16.92v-14.2H360.47z"/>
	<g>
		<path class="st49" d="M816.63,958.43H432.8c-14.38,0-26.09-11.7-26.09-26.09V504.97c0-58,22.74-112.68,64.03-153.97
			s95.97-64.03,153.97-64.03c58,0,112.68,22.74,153.97,64.03s64.03,95.97,64.03,153.97v427.38
			C842.72,946.73,831.02,958.43,816.63,958.43z M624.71,305.29c-110.1,0-199.67,89.57-199.67,199.67v427.38
			c0,4.28,3.48,7.76,7.76,7.76h383.84c4.28,0,7.76-3.48,7.76-7.76V504.97C824.39,394.87,734.82,305.29,624.71,305.29z"/>
	</g>
	<path class="st50" d="M780.92,519.06v46.64H490.14c-9.31,0-16.92-7.61-16.92-16.92v-29.72c0-1.52,0.03-3.03,0.08-4.54
		c0.17-5.37,0.65-10.66,1.42-15.86c0.37-2.37,0.78-4.72,1.26-7.05c1.73-8.52,4.24-16.75,7.49-24.62c0.97-2.38,2.02-4.74,3.13-7.05
		c4.5-9.46,10.07-18.33,16.51-26.47c1.92-2.43,3.92-4.77,5.99-7.05c7.73-8.53,16.5-16.09,26.11-22.46
		c3.82-2.55,7.76-4.91,11.83-7.05c13.69-7.28,28.74-12.3,44.64-14.59c2.33-0.34,4.68-0.62,7.05-0.82c4.16-0.39,8.38-0.59,12.63-0.59
		h31.39c5.7,0,11.32,0.35,16.84,1.03c2.37,0.3,4.71,0.63,7.02,1.06c30.81,5.41,58.18,21.12,78.41,43.43
		c2.07,2.28,4.08,4.63,5.99,7.05c5.06,6.39,9.59,13.24,13.47,20.47c1.26,2.31,2.44,4.65,3.54,7.05
		c6.26,13.37,10.42,27.88,12.07,43.12c0.27,2.33,0.45,4.68,0.58,7.05C780.85,513.77,780.92,516.41,780.92,519.06z"/>
	<g>
		<path class="st28" d="M517.81,538.72v2.23h-7.05v-2.23c0-9.46-7.68-17.15-17.15-17.15h-20.39v-2.51c0-1.52,0.03-3.03,0.08-4.54
			h20.31C506.95,514.52,517.81,525.38,517.81,538.72z"/>
		<path class="st28" d="M571.03,527.04c-6.68-1.09-11.8-6.88-11.8-13.86V498.6h-7.05v14.58c0,10.46,7.65,19.14,17.65,20.8
			c-0.02,0.4-0.06,0.8-0.06,1.21v30.52h7.05v-30.52c0-10.96,8.92-19.88,19.88-19.88h2.51v-7.05h-2.51
			C584.68,508.26,574.49,516.16,571.03,527.04z"/>
		<path class="st28" d="M673.19,558.03c0,8.49-6.3,15.51-14.47,16.68V558.1c0-8.08-6.58-14.66-14.66-14.66
			c-8.12,0-14.72-6.61-14.72-14.72v-14.03h-7.05v14.03c0,12.01,9.77,21.77,21.77,21.77c4.2,0,7.61,3.41,7.61,7.61v48.33h7.05v-24.6
			c12.07-1.21,21.52-11.42,21.52-23.8v-7.14h-7.05V558.03z"/>
		<path class="st28" d="M520.64,459.94v7.05h-37.17c0.97-2.38,2.02-4.74,3.13-7.05H520.64z"/>
		<path class="st28" d="M585.43,456.65v3.92h-7.05v-3.92c0-12.79-10.39-23.18-23.18-23.18h-52.09c1.92-2.43,3.92-4.77,5.99-7.05
			h46.09C571.87,426.42,585.43,439.98,585.43,456.65z"/>
		<path class="st28" d="M576.11,413.31v3.54h-7.05v-3.54c0-5.16-4.2-9.35-9.36-9.35h-24.48c3.82-2.55,7.76-4.91,11.83-7.05h12.65
			C568.75,396.91,576.11,404.27,576.11,413.31z"/>
		<path class="st28" d="M622.97,427.97v7.05h-0.49c-16.98,0-30.78-13.8-30.78-30.77v-21.94c2.33-0.34,4.68-0.62,7.05-0.82v22.76
			c0,13.09,10.65,23.72,23.73,23.72H622.97z"/>
		<path class="st28" d="M666.62,382.99c-0.75,16.22-14.17,29.17-30.57,29.17h-0.44v-7.05h0.44c12.87,0,23.35-10.35,23.55-23.18
			C661.97,382.23,664.31,382.57,666.62,382.99z"/>
		<path class="st28" d="M751.03,433.47h-50.37c-19.49,0-35.32,15.85-35.32,35.34v0.21h-7.05v-0.21c0-7.05,1.73-13.71,4.79-19.56
			c-11.25-2.57-19.67-12.62-19.67-24.63v-2.44h7.05v2.44c0,9.57,7.4,17.43,16.79,18.16c7.76-9.94,19.84-16.36,33.4-16.36h44.37
			C747.11,428.7,749.11,431.04,751.03,433.47z"/>
		<path class="st28" d="M768.03,460.99h-15.06c-1.73,13.38-13.18,23.75-27.02,23.75h-7.56v-7.05h7.56c9.94,0,18.22-7.22,19.9-16.7
			h-32.77v-7.05h51.41C765.75,456.26,766.93,458.6,768.03,460.99z"/>
		<path class="st28" d="M780.68,511.16h-40.07v-7.05h39.5C780.37,506.44,780.56,508.79,780.68,511.16z"/>
		<path class="st28" d="M734.36,544v0.92c0,9.74,6.43,18.02,15.26,20.78c2.06,0.65,4.24,1,6.51,1v7.05
			c-7.74,0-14.76-3.06-19.95-8.05c-5.46-5.25-8.87-12.63-8.87-20.78V544h-1.78c-16.53,0-29.96-13.44-29.96-29.96v-4.19h7.05v4.19
			c0,12.63,10.28,22.91,22.91,22.91h55.39V544H734.36z"/>
		<path class="st28" d="M693.74,462.63c0,15.83-12.87,28.71-28.69,28.71h-22.28c1.57,3.85,2.44,8.05,2.44,12.45v3.85h-7.05v-3.85
			c0-14.44-11.76-26.18-26.2-26.18h-64.1c-7.12,12.55-20.6,21.05-36.04,21.05h-37.08c0.37-2.37,0.78-4.72,1.26-7.05h35.83
			c18.94,0,34.35-15.41,34.35-34.35v-4.23h7.05v4.23c0,4.65-0.78,9.12-2.2,13.3h60.94c11.04,0,20.84,5.41,26.89,13.73h26.2
			c11.94,0,21.64-9.72,21.64-21.66H693.74z"/>
	</g>
</g>
</svg>
