<svg id="Layer_1" data-name="Layer 1" xmlns="http://www.w3.org/2000/svg" viewBox="0 0 257.53 236.39"><defs><style>.cls-1{fill:#549dc7;}.cls-2{fill:#583870;}.cls-3{fill:#f57e22;}.cls-4{fill:#f5f36a;}</style></defs><title>icon_3</title><path class="cls-1" d="M99.82,222.6a10.61,10.61,0,0,0,10.58,10.59h34.17a10.61,10.61,0,0,0,10.59-10.59V187.33H99.82Z"/><path class="cls-2" d="M144.57,235.31H110.4A12.72,12.72,0,0,1,97.7,222.6V185.21h59.58V222.6A12.72,12.72,0,0,1,144.57,235.31Zm-42.64-45.86V222.6a8.48,8.48,0,0,0,8.47,8.47h34.17A8.47,8.47,0,0,0,153,222.6V189.45Z"/><path class="cls-3" d="M123.26,44.43A64.49,64.49,0,0,0,87.72,159.56a32.4,32.4,0,0,1,12.1,25.57v2.2h55.34v-2.6a33,33,0,0,1,12.66-25.62A64.49,64.49,0,0,0,123.26,44.43Z"/><path class="cls-2" d="M157.28,189.45H97.7v-4.32a30.46,30.46,0,0,0-11.29-23.91A66.61,66.61,0,0,1,123.12,42.31h0A66.1,66.1,0,0,1,173.06,60.2a66.6,66.6,0,0,1-3.92,100.56,30.79,30.79,0,0,0-11.86,24Zm-55.35-4.24H153v-.48a35,35,0,0,1,13.45-27.27,62.38,62.38,0,0,0-43.1-110.92h0A62.37,62.37,0,0,0,89,157.89a34.71,34.71,0,0,1,12.9,27.24Z"/><rect class="cls-2" x="99.82" y="199.89" width="12.66" height="4.24"/><rect class="cls-2" x="120.45" y="199.89" width="34.71" height="4.24"/><rect class="cls-2" x="99.82" y="213.17" width="35.91" height="4.24"/><rect class="cls-2" x="143.7" y="213.17" width="11.46" height="4.24"/><path class="cls-2" d="M127.49,30.51a2.12,2.12,0,0,1-2.12-2.12V3.21a2.12,2.12,0,0,1,4.24,0V28.39A2.12,2.12,0,0,1,127.49,30.51Z"/><path class="cls-2" d="M226.33,102.58H201.14a2.12,2.12,0,1,1,0-4.23h25.19a2.12,2.12,0,1,1,0,4.23Z"/><path class="cls-2" d="M55,102.58H31.2a2.12,2.12,0,0,1,0-4.23H55a2.12,2.12,0,1,1,0,4.23Z"/><path class="cls-2" d="M75.9,50.38a2.09,2.09,0,0,1-1.45-.58L53.52,29.93a2.12,2.12,0,0,1,2.91-3.07L77.36,46.72a2.12,2.12,0,0,1-1.46,3.66Z"/><path class="cls-2" d="M178.08,50.38a2.1,2.1,0,0,1-1.46-.58,2.13,2.13,0,0,1-.08-3l18.8-19.86a2.12,2.12,0,0,1,3.08,2.91l-18.8,19.87A2.12,2.12,0,0,1,178.08,50.38Z"/><rect class="cls-2" x="125.37" y="91.81" width="4.24" height="95.53"/><path class="cls-2" d="M140.93,187.33h-4.24V153.67a12.05,12.05,0,0,1,12-12,7.81,7.81,0,0,0,7.8-7.8V121.41h4.23v12.43a12.05,12.05,0,0,1-12,12,7.8,7.8,0,0,0-7.8,7.79Z"/><path class="cls-2" d="M118.86,187.33h-4.23V153.12a7.81,7.81,0,0,0-7.8-7.8h-.56a12.05,12.05,0,0,1-12-12V121.41h4.23v11.87a7.81,7.81,0,0,0,7.8,7.8h.56a12,12,0,0,1,12,12Z"/><circle class="cls-4" cx="96.36" cy="121.41" r="8.66"/><path class="cls-2" d="M96.36,132.19a10.78,10.78,0,1,1,10.77-10.78A10.79,10.79,0,0,1,96.36,132.19Zm0-17.32a6.54,6.54,0,1,0,6.54,6.54A6.55,6.55,0,0,0,96.36,114.87Z"/><circle class="cls-4" cx="158.64" cy="121.41" r="8.66"/><path class="cls-2" d="M158.64,132.19a10.78,10.78,0,1,1,10.78-10.78A10.79,10.79,0,0,1,158.64,132.19Zm0-17.32a6.54,6.54,0,1,0,6.54,6.54A6.56,6.56,0,0,0,158.64,114.87Z"/><circle class="cls-4" cx="127.49" cy="91.81" r="8.66"/><path class="cls-2" d="M127.49,102.58a10.78,10.78,0,1,1,10.78-10.77A10.79,10.79,0,0,1,127.49,102.58Zm0-17.32A6.55,6.55,0,1,0,134,91.81,6.55,6.55,0,0,0,127.49,85.26Z"/></svg>