<svg id="Layer_1" data-name="Layer 1" xmlns="http://www.w3.org/2000/svg" viewBox="0 0 257.53 236.39"><defs><style>.cls-1{fill:#f57e22;}.cls-2{fill:#583870;}.cls-3{fill:#f5f36a;}.cls-4{fill:#529cd2;}</style></defs><title>icon_2</title><rect class="cls-1" x="50.58" y="26.66" width="156.36" height="191.99" rx="10.59"/><path class="cls-2" d="M196.36,220.76H61.17a12.72,12.72,0,0,1-12.7-12.7V37.24a12.72,12.72,0,0,1,12.7-12.7H196.36a12.71,12.71,0,0,1,12.7,12.7V208.06A12.71,12.71,0,0,1,196.36,220.76ZM61.17,28.77a8.48,8.48,0,0,0-8.47,8.47V208.06a8.48,8.48,0,0,0,8.47,8.47H196.36a8.48,8.48,0,0,0,8.47-8.47V37.24a8.48,8.48,0,0,0-8.47-8.47Z"/><rect class="cls-3" x="79.78" y="17.75" width="97.97" height="17.81"/><path class="cls-2" d="M179.87,37.68H77.66v-22H179.87Zm-98-4.24h93.73V19.87H81.9Z"/><rect class="cls-3" x="83.78" y="155.25" width="12.68" height="36.32"/><path class="cls-2" d="M98.58,193.69H81.66V153.13H98.58ZM85.9,189.45h8.44V157.36H85.9Z"/><rect class="cls-4" x="83.78" y="66.45" width="39.74" height="27.82"/><path class="cls-2" d="M125.64,96.39h-44V64.33h44ZM85.9,92.15h35.5V68.57H85.9Z"/><rect class="cls-3" x="110.84" y="169.71" width="12.68" height="21.86"/><path class="cls-2" d="M125.64,193.69H108.72v-26.1h16.92ZM113,189.45h8.44V171.83H113Z"/><rect class="cls-3" x="137.9" y="152.08" width="12.68" height="39.49"/><path class="cls-2" d="M152.7,193.69H135.78V150H152.7ZM140,189.45h8.45V154.2H140Z"/><rect class="cls-3" x="164.96" y="135.94" width="12.68" height="55.63"/><path class="cls-2" d="M179.76,193.69H162.85V133.83h16.91Zm-12.68-4.24h8.45V138.06h-8.45Z"/><polygon class="cls-2" points="117.28 154.7 88.94 135.72 91.3 132.2 117.08 149.47 143.25 128.86 170.31 114.44 172.3 118.18 145.41 132.51 117.28 154.7"/><circle class="cls-3" cx="90.12" cy="133.96" r="6.34"/><path class="cls-2" d="M90.12,142.42A8.46,8.46,0,1,1,98.58,134,8.48,8.48,0,0,1,90.12,142.42Zm0-12.68A4.22,4.22,0,1,0,94.34,134,4.22,4.22,0,0,0,90.12,129.74Z"/><circle class="cls-3" cx="117.18" cy="152.08" r="6.34"/><path class="cls-2" d="M117.18,160.54a8.46,8.46,0,1,1,8.46-8.46A8.47,8.47,0,0,1,117.18,160.54Zm0-12.68a4.23,4.23,0,1,0,4.22,4.22A4.22,4.22,0,0,0,117.18,147.86Z"/><circle class="cls-3" cx="144.24" cy="130.73" r="6.34"/><path class="cls-2" d="M144.24,139.19a8.46,8.46,0,1,1,8.46-8.46A8.48,8.48,0,0,1,144.24,139.19Zm0-12.68a4.22,4.22,0,1,0,4.23,4.22A4.22,4.22,0,0,0,144.24,126.51Z"/><circle class="cls-3" cx="171.3" cy="116.31" r="6.34"/><path class="cls-2" d="M171.3,124.77a8.46,8.46,0,1,1,8.46-8.46A8.47,8.47,0,0,1,171.3,124.77Zm0-12.68a4.22,4.22,0,1,0,4.23,4.22A4.23,4.23,0,0,0,171.3,112.09Z"/><rect class="cls-2" x="140.25" y="63.94" width="7.98" height="7.98" rx="3.99"/><rect class="cls-2" x="157.58" y="63.94" width="27.44" height="7.98" rx="3.99"/><rect class="cls-2" x="177.04" y="90.28" width="7.98" height="7.98" rx="3.99" transform="translate(362.07 188.54) rotate(180)"/><rect class="cls-2" x="140.25" y="90.28" width="27.44" height="7.98" rx="3.99" transform="translate(307.95 188.54) rotate(-180)"/><rect class="cls-2" x="73.95" y="114.37" width="6.17" height="6.17" rx="3.08"/><rect class="cls-2" x="85.31" y="114.37" width="9.63" height="6.17" rx="3.08"/><rect class="cls-2" x="99.85" y="114.37" width="34.66" height="6.17" rx="3.08"/></svg>