<svg id="Layer_1" data-name="Layer 1" xmlns="http://www.w3.org/2000/svg" viewBox="0 0 257.53 236.39"><defs><style>.cls-1{fill:#f57e22;}.cls-2{fill:#583870;}.cls-3{fill:#f5f36a;}</style></defs><title>icon_1</title><path class="cls-1" d="M235.47,136.79l-10.11-22.42A37.54,37.54,0,0,1,222,98.89V90.25a64.93,64.93,0,0,0-5.52-26.42c-7.73-17.35-24.95-42.44-59.91-42.44a75.34,75.34,0,0,0-27.83,5.5,75.4,75.4,0,0,0-27.84-5.5C66,21.39,48.75,46.48,41,63.83A64.93,64.93,0,0,0,35.5,90.25v8.64a37.54,37.54,0,0,1-3.33,15.48L22.06,136.79a4.58,4.58,0,0,0,4.18,6.46h14.5a4.58,4.58,0,0,1,4.58,4.58v24.3a11.19,11.19,0,0,0,11.19,11.19H80.18a8,8,0,0,1,7.9,6.78l2.81,18.15a8,8,0,0,0,7.9,6.77h60a8,8,0,0,0,7.9-6.77l2.81-18.15a8,8,0,0,1,7.9-6.78H201a11.19,11.19,0,0,0,11.19-11.19v-24.3a4.58,4.58,0,0,1,4.58-4.58H231.3A4.58,4.58,0,0,0,235.47,136.79Z"/><path class="cls-2" d="M158.74,217.14H98.79a10.06,10.06,0,0,1-10-8.57L86,190.42a5.86,5.86,0,0,0-5.81-5H56.51A13.32,13.32,0,0,1,43.2,172.13v-24.3a2.46,2.46,0,0,0-2.46-2.46H26.24a6.7,6.7,0,0,1-6.11-9.45L30.24,113.5a35.23,35.23,0,0,0,3.15-14.61V90.25A66.46,66.46,0,0,1,39.09,63c7.27-16.32,25-43.7,61.84-43.7a76.75,76.75,0,0,1,27.84,5.34,76.74,76.74,0,0,1,27.9-5.34c36.8,0,54.5,27.38,61.77,43.7a66.46,66.46,0,0,1,5.7,27.28v8.64a35.23,35.23,0,0,0,3.15,14.61l10.11,22.42a6.7,6.7,0,0,1-6.1,9.45H216.79a2.46,2.46,0,0,0-2.46,2.46v24.3A13.32,13.32,0,0,1,201,185.44H177.35a5.85,5.85,0,0,0-5.8,5l-2.82,18.15A10.06,10.06,0,0,1,158.74,217.14ZM101.51,23.5H101c-32.82,0-49.67,22.4-58,41.19a62.38,62.38,0,0,0-5.34,25.56v8.64a39.38,39.38,0,0,1-3.52,16.35L24,137.66a2.46,2.46,0,0,0,2.25,3.47h14.5a6.71,6.71,0,0,1,6.7,6.7v24.3a9.08,9.08,0,0,0,9.07,9.08H80.18a10.06,10.06,0,0,1,10,8.56L93,207.92a5.85,5.85,0,0,0,5.81,5h60a5.85,5.85,0,0,0,5.81-5l2.81-18.15a10.06,10.06,0,0,1,10-8.56H201a9.08,9.08,0,0,0,9.07-9.08v-24.3a6.71,6.71,0,0,1,6.7-6.7H231.3a2.46,2.46,0,0,0,2.24-3.47l-10.11-22.42a39.38,39.38,0,0,1-3.52-16.35V90.25a62.38,62.38,0,0,0-5.34-25.56c-8.37-18.79-25.22-41.19-58-41.19a74.6,74.6,0,0,0-27,5.35l-.79.32-.8-.32A74.86,74.86,0,0,0,101.51,23.5Z"/><path class="cls-3" d="M133.9,43V116a3.36,3.36,0,0,0,.2,1.18c.55,1.52,2.46,5,8.52,5,3.5,0,5.18-.8,6-1.67a3.48,3.48,0,0,1,3.52-1.16c3.17.92,8.31,1.52,12.18-2.35,2.87-2.87,3-5.52,2.35-7.51a3.47,3.47,0,0,1,2.16-4.28c2.89-1.11,6.1-3.86,6.1-10.6,0-6.52-1.6-10.1-3.1-12a3.4,3.4,0,0,1,.27-4.41,10.1,10.1,0,0,0,2.83-6.9c0-3.68-3.15-5.66-5.67-6.65a3.52,3.52,0,0,1-2.2-4c.78-3.62,1.4-9.48-1.8-12.67-2.7-2.7-7.76-2.68-11.7-2.13a3.5,3.5,0,0,1-4-3.9c.36-2.62,0-5.72-2.45-7.87C141.91,29.52,133.9,32.11,133.9,43Z"/><path class="cls-2" d="M142.62,124.26c-7.42,0-9.82-4.44-10.51-6.35a5.5,5.5,0,0,1-.33-1.9V43c0-6,2.3-10.52,6.31-12.36a9.69,9.69,0,0,1,10.39,1.8c2.63,2.27,3.72,5.64,3.17,9.76a1.33,1.33,0,0,0,.38,1.12,1.47,1.47,0,0,0,1.22.41c6.27-.88,10.81,0,13.49,2.72,3.76,3.76,3.36,10,2.37,14.62a1.39,1.39,0,0,0,.91,1.59c4.52,1.78,7,4.85,7,8.62a12.23,12.23,0,0,1-3.39,8.34,1.28,1.28,0,0,0-.16,1.67c2.35,3,3.55,7.51,3.55,13.33,0,8.45-4.68,11.5-7.46,12.57a1.35,1.35,0,0,0-.9,1.65c.76,2.34.88,5.92-2.87,9.67-3.51,3.51-8.58,4.53-14.27,2.88a1.46,1.46,0,0,0-1.36.55C148.72,123.49,146.25,124.26,142.62,124.26ZM141.82,34a4.73,4.73,0,0,0-2,.42C137.41,35.56,136,38.66,136,43V116a1.45,1.45,0,0,0,.07.47c.48,1.32,2,3.55,6.53,3.55,3.27,0,4.2-.75,4.41-1a5.6,5.6,0,0,1,5.68-1.77c2.93.84,7.06,1.22,10.09-1.82,1.82-1.82,2.42-3.57,1.84-5.36a5.59,5.59,0,0,1,3.41-6.91c3.15-1.21,4.74-4.11,4.74-8.62,0-6-1.44-9.18-2.65-10.73a5.53,5.53,0,0,1,.38-7.15,7.87,7.87,0,0,0,2.27-5.46c0-2-1.46-3.55-4.33-4.69A5.63,5.63,0,0,1,165,60.12c.51-2.35,1.41-8.09-1.22-10.72-1.65-1.65-5.17-2.19-9.92-1.53a5.67,5.67,0,0,1-4.78-1.59,5.53,5.53,0,0,1-1.6-4.69c.36-2.67-.22-4.68-1.74-6A6,6,0,0,0,141.82,34Z"/><path class="cls-2" d="M152.82,103.65a2,2,0,0,1-1-.26,2.1,2.1,0,0,1-.86-2.86l1.68-3.14a2.08,2.08,0,0,0-.24-2.33l-3-3.61a2.12,2.12,0,0,1,3.26-2.71l3,3.61a6.29,6.29,0,0,1,.71,7l-1.68,3.14A2.14,2.14,0,0,1,152.82,103.65Z"/><path class="cls-2" d="M141.66,94.69a2.11,2.11,0,0,1-.74-4.09l6.4-2.42a2.11,2.11,0,0,0,1.28-1.4l1.49-5.38a2.12,2.12,0,0,1,4.08,1.14l-1.49,5.38a6.36,6.36,0,0,1-3.86,4.22l-6.41,2.42A2.19,2.19,0,0,1,141.66,94.69Z"/><path class="cls-2" d="M151,117.83a2.15,2.15,0,0,1-.75-.13l-3.69-1.41a6.31,6.31,0,0,1-3.91-4.49l-.74-3.18a2.12,2.12,0,0,1,4.13-1l.73,3.19a2.09,2.09,0,0,0,1.3,1.48l3.68,1.41a2.11,2.11,0,0,1-.75,4.09Z"/><path class="cls-2" d="M160.94,114.05a2.13,2.13,0,0,1-2.1-1.89l-.63-5.85a6.3,6.3,0,0,1,3.69-6.45L166.14,98a2.12,2.12,0,1,1,1.74,3.86l-4.24,1.91a2.08,2.08,0,0,0-1.22,2.13l.63,5.85a2.11,2.11,0,0,1-1.88,2.33Z"/><path class="cls-2" d="M168.79,87.12a2.12,2.12,0,0,1-2.06-1.66l-1-4.68a2.08,2.08,0,0,0-2-1.64h-6a2.12,2.12,0,1,1,0-4.23h6a6.29,6.29,0,0,1,6.17,4.94l1.05,4.69a2.12,2.12,0,0,1-1.6,2.53A2.5,2.5,0,0,1,168.79,87.12Z"/><path class="cls-2" d="M151,74.86a2.12,2.12,0,0,1-2.12-2.12V70.15a2.12,2.12,0,0,0-1.52-2l-4.78-1.34a2.12,2.12,0,1,1,1.14-4.08l4.78,1.35a6.34,6.34,0,0,1,4.62,6.09v2.59A2.12,2.12,0,0,1,151,74.86Z"/><path class="cls-2" d="M153.44,66.87a2.2,2.2,0,0,1-.5-.06,2.12,2.12,0,0,1-1.56-2.55,6.28,6.28,0,0,1,7.48-4.71l2.39.52a2.12,2.12,0,1,1-.89,4.14L158,63.69a2.08,2.08,0,0,0-2.47,1.56A2.12,2.12,0,0,1,153.44,66.87Z"/><path class="cls-2" d="M155.85,55.58a2.09,2.09,0,0,1-.42,0L147.91,54a6.3,6.3,0,0,1-5-5.06l-1-5.46a2.12,2.12,0,0,1,4.17-.76l1,5.45a2.08,2.08,0,0,0,1.65,1.68l7.53,1.5a2.12,2.12,0,0,1-.42,4.2Z"/><path class="cls-2" d="M183.85,62.88a2.12,2.12,0,0,1-1.33-3.77l14.15-11.35a2.12,2.12,0,1,1,2.65,3.3L185.18,62.41A2.16,2.16,0,0,1,183.85,62.88Z"/><path class="cls-2" d="M204.23,79.14h-15.5a2.12,2.12,0,0,1,0-4.23h15.5a2.12,2.12,0,0,1,0,4.23Z"/><path class="cls-2" d="M197.83,108a2.14,2.14,0,0,1-1.49-.61L182.87,94.08a2.11,2.11,0,0,1,3-3l13.48,13.33a2.12,2.12,0,0,1-1.49,3.62Z"/><path class="cls-3" d="M123.63,43V116a3.36,3.36,0,0,1-.2,1.18c-.55,1.52-2.46,5-8.52,5-3.5,0-5.18-.8-6-1.67a3.48,3.48,0,0,0-3.52-1.16c-3.17.92-8.31,1.52-12.18-2.35-2.87-2.87-3-5.52-2.35-7.51a3.47,3.47,0,0,0-2.16-4.28c-2.89-1.11-6.1-3.86-6.1-10.6,0-6.52,1.6-10.1,3.1-12a3.4,3.4,0,0,0-.27-4.41,10.1,10.1,0,0,1-2.83-6.9c0-3.68,3.16-5.66,5.67-6.65a3.52,3.52,0,0,0,2.2-4c-.78-3.62-1.39-9.48,1.8-12.67,2.7-2.7,7.76-2.68,11.7-2.13a3.5,3.5,0,0,0,4-3.9c-.35-2.62,0-5.72,2.45-7.87C115.62,29.52,123.63,32.11,123.63,43Z"/><path class="cls-2" d="M114.91,124.26c-3.63,0-6.1-.77-7.55-2.37a1.43,1.43,0,0,0-1.36-.55c-5.69,1.65-10.76.63-14.27-2.88-3.74-3.75-3.63-7.33-2.87-9.66a1.35,1.35,0,0,0-.9-1.66c-2.78-1.07-7.45-4.12-7.45-12.57,0-5.82,1.19-10.3,3.54-13.33a1.29,1.29,0,0,0-.15-1.67,12.18,12.18,0,0,1-3.39-8.34c0-3.77,2.48-6.84,7-8.62A1.39,1.39,0,0,0,88.42,61c-1-4.59-1.39-10.86,2.37-14.62,2.68-2.68,7.23-3.59,13.49-2.72a1.48,1.48,0,0,0,1.22-.41,1.3,1.3,0,0,0,.38-1.12c-.55-4.12.54-7.49,3.17-9.76a9.69,9.69,0,0,1,10.39-1.8c4,1.84,6.31,6.34,6.31,12.36V116a5.6,5.6,0,0,1-.33,1.91C124.73,119.82,122.33,124.26,114.91,124.26Zm-8.66-7.19a5.8,5.8,0,0,1,4.25,2c.21.24,1.14,1,4.41,1,4.56,0,6-2.23,6.53-3.55a1.45,1.45,0,0,0,.08-.47V43c0-4.29-1.4-7.39-3.85-8.51a5.42,5.42,0,0,0-5.85,1.16c-1.51,1.31-2.1,3.32-1.74,6a5.53,5.53,0,0,1-1.6,4.69,5.67,5.67,0,0,1-4.78,1.59c-4.74-.65-8.27-.12-9.92,1.53-2.63,2.63-1.73,8.37-1.22,10.72a5.62,5.62,0,0,1-3.49,6.42c-2.87,1.14-4.33,2.72-4.33,4.69A7.87,7.87,0,0,0,87,76.69a5.53,5.53,0,0,1,.38,7.15c-1.21,1.56-2.65,4.68-2.65,10.73,0,4.51,1.59,7.41,4.74,8.62a5.59,5.59,0,0,1,3.41,6.91c-.58,1.79,0,3.54,1.84,5.36,3,3,7.17,2.67,10.09,1.82A5,5,0,0,1,106.25,117.07Z"/><path class="cls-2" d="M104.71,103.65a2.12,2.12,0,0,1-1.86-1.12l-1.69-3.14a6.29,6.29,0,0,1,.71-7l3-3.61a2.12,2.12,0,0,1,3.26,2.71l-3,3.61a2.07,2.07,0,0,0-.24,2.33l1.69,3.14a2.11,2.11,0,0,1-.87,2.86A2,2,0,0,1,104.71,103.65Z"/><path class="cls-2" d="M115.87,94.69a2.19,2.19,0,0,1-.75-.13l-6.4-2.42a6.37,6.37,0,0,1-3.87-4.22l-1.49-5.38a2.12,2.12,0,0,1,4.08-1.14l1.49,5.38a2.1,2.1,0,0,0,1.29,1.4l6.39,2.42a2.11,2.11,0,0,1-.74,4.09Z"/><path class="cls-2" d="M106.5,117.83a2.11,2.11,0,0,1-.75-4.09l3.68-1.41a2.07,2.07,0,0,0,1.3-1.48l.73-3.19a2.12,2.12,0,0,1,4.13,1l-.73,3.18a6.32,6.32,0,0,1-3.92,4.49l-3.68,1.41A2.25,2.25,0,0,1,106.5,117.83Z"/><path class="cls-2" d="M96.59,114.05l-.23,0a2.11,2.11,0,0,1-1.88-2.33l.63-5.85a2.08,2.08,0,0,0-1.22-2.13l-4.24-1.91A2.12,2.12,0,1,1,91.39,98l4.24,1.91a6.3,6.3,0,0,1,3.69,6.45l-.63,5.85A2.13,2.13,0,0,1,96.59,114.05Z"/><path class="cls-2" d="M88.74,87.12a2.5,2.5,0,0,1-.47-.05,2.12,2.12,0,0,1-1.6-2.53l1-4.69a6.29,6.29,0,0,1,6.18-4.94h6a2.12,2.12,0,1,1,0,4.23h-6a2.09,2.09,0,0,0-2.05,1.64l-1,4.68A2.12,2.12,0,0,1,88.74,87.12Z"/><path class="cls-2" d="M106.5,74.86a2.12,2.12,0,0,1-2.12-2.12V70.15A6.34,6.34,0,0,1,109,64.06l4.78-1.35a2.12,2.12,0,0,1,1.14,4.08l-4.77,1.34a2.12,2.12,0,0,0-1.53,2v2.59A2.12,2.12,0,0,1,106.5,74.86Z"/><path class="cls-2" d="M104.09,66.87A2.12,2.12,0,0,1,102,65.25a2.11,2.11,0,0,0-2.47-1.56l-2.39.52a2.12,2.12,0,1,1-.89-4.14l2.38-.52a6.31,6.31,0,0,1,7.49,4.71,2.12,2.12,0,0,1-1.56,2.55A2.2,2.2,0,0,1,104.09,66.87Z"/><path class="cls-2" d="M101.68,55.58a2.12,2.12,0,0,1-.41-4.2l7.52-1.5a2.08,2.08,0,0,0,1.65-1.68l1-5.45a2.12,2.12,0,0,1,4.17.76l-1,5.46a6.3,6.3,0,0,1-5,5.06l-7.52,1.5A2,2,0,0,1,101.68,55.58Z"/><path class="cls-2" d="M73.68,62.88a2.11,2.11,0,0,1-1.32-.47L58.21,51.06a2.12,2.12,0,1,1,2.65-3.3L75,59.11a2.12,2.12,0,0,1-1.33,3.77Z"/><path class="cls-2" d="M68.8,79.14H53.3a2.12,2.12,0,0,1,0-4.23H68.8a2.12,2.12,0,1,1,0,4.23Z"/><path class="cls-2" d="M59.7,108a2.12,2.12,0,0,1-1.48-3.62L71.69,91.07a2.11,2.11,0,1,1,3,3L61.19,107.41A2.14,2.14,0,0,1,59.7,108Z"/></svg>