<?xml version="1.0" encoding="utf-8"?>
<!-- Generator: Adobe Illustrator 24.0.2, SVG Export Plug-In . SVG Version: 6.00 Build 0)  -->
<svg version="1.1" id="Layer_1" xmlns="http://www.w3.org/2000/svg" xmlns:xlink="http://www.w3.org/1999/xlink" x="0px" y="0px"
	 viewBox="0 0 595.46 175.85" style="enable-background:new 0 0 595.46 175.85;" xml:space="preserve">
<style type="text/css">
	.st0{fill:#FFFFFF;}
	.st1{fill:#5C575D;}
	.st2{fill:#0F1735;}
	.st3{fill:#5E5C5D;}
	.st4{fill:#EB2729;}
	.st5{fill:#FE7B0D;}
	.st6{fill:#615862;}
	.st7{fill:#44A2CC;}
	.st8{fill:#A7A7A8;}
	.st9{display:none;}
	.st10{display:inline;fill:#0F1735;}
	.st11{display:inline;}
	.st12{fill:none;stroke:#EF2823;stroke-width:2;stroke-miterlimit:10;}
	.st13{fill:none;stroke:#EF2823;stroke-width:2;stroke-miterlimit:10;stroke-dasharray:2.6577,2.6577;}
	.st14{fill:none;stroke:#EF2823;stroke-width:2;stroke-miterlimit:10;stroke-dasharray:2.6412,2.6412;}
	.st15{fill:none;stroke:#EF2823;stroke-width:2;stroke-miterlimit:10;stroke-dasharray:2.6844,2.6844;}
	.st16{fill:none;stroke:#EF2823;stroke-width:2;stroke-miterlimit:10;stroke-dasharray:2.8735,2.8735;}
	.st17{display:inline;fill:none;stroke:#EF2823;stroke-width:2;stroke-miterlimit:10;stroke-dasharray:9;}
	.st18{display:inline;fill:#EF2823;}
	.st19{display:inline;fill:none;stroke:#EF2823;stroke-miterlimit:10;}
	.st20{fill:#513C27;}
	.st21{display:inline;fill:none;stroke:#513C27;stroke-miterlimit:10;}
	.st22{fill:none;stroke:#513C27;stroke-miterlimit:10;}
	.st23{display:inline;fill:#513C27;}
	.st24{display:inline;fill:none;stroke:#EF2823;stroke-width:2;stroke-miterlimit:10;stroke-dasharray:3;}
	.st25{display:inline;fill:none;stroke:#EF2823;stroke-width:5;stroke-miterlimit:10;stroke-dasharray:3;}
	.st26{display:inline;fill:none;stroke:#EF2823;stroke-width:3;stroke-miterlimit:10;}
	.st27{fill:#FD5120;}
	.st28{fill:#103859;}
	.st29{fill:#E6D8D8;}
	.st30{fill:#C5C1C0;}
	.st31{fill:#E23F25;}
	.st32{fill:#E4D7D7;}
	.st33{fill:#E95633;}
	.st34{fill:#F0552F;}
	.st35{fill:#09232A;}
	.st36{fill:#EF7E6E;}
	.st37{fill:#FFE0AE;}
	.st38{fill:#F35331;}
	.st39{fill:#F18169;}
	.st40{fill:#F37F68;}
	.st41{fill:#F5F2F6;}
	.st42{fill:#161F27;}
	.st43{fill:#ED3C1C;}
	.st44{fill:#F25428;}
	.st45{fill:#0A2C40;}
	.st46{fill:#F2532A;}
	.st47{fill:#104F6E;}
	.st48{fill:#F5CDC4;}
	.st49{fill:#133B56;}
	.st50{fill:#EF552F;}
</style>
<g>
	<g>
		<path class="st1" d="M65.07,89.99H15.25c0.36,6.77,2.63,12.17,6.81,16.17c4.18,4,9.59,6.01,16.21,6.01
			c9.24,0,17.76-2.87,25.56-8.62v13.7c-4.31,2.88-8.59,4.93-12.82,6.16c-4.24,1.23-9.2,1.85-14.9,1.85c-7.8,0-14.12-1.62-18.94-4.85
			c-4.83-3.23-8.69-7.58-11.59-13.05S1.24,95.56,1.24,88.37c0-10.78,3.05-19.54,9.16-26.29c6.11-6.75,14.04-10.12,23.79-10.12
			c9.39,0,16.89,3.29,22.48,9.86c5.59,6.57,8.39,15.37,8.39,26.41V89.99z M15.56,81.6h35.65c-0.36-5.6-2.03-9.91-5.01-12.94
			c-2.98-3.03-6.98-4.54-12.01-4.54c-5.03,0-9.15,1.52-12.36,4.54C18.63,71.69,16.53,76,15.56,81.6z"/>
		<path class="st1" d="M94.25,53.34v9.01c6.26-6.93,13.37-10.39,21.33-10.39c4.41,0,8.52,1.14,12.32,3.43
			c3.8,2.28,6.69,5.42,8.66,9.39c1.98,3.98,2.96,10.28,2.96,18.9v40.5h-14.01V83.83c0-7.24-1.1-12.41-3.31-15.51
			c-2.21-3.11-5.9-4.66-11.09-4.66c-6.62,0-12.24,3.31-16.86,9.93v50.59H79.93V53.34H94.25z"/>
		<path class="st1" d="M149.14,64.58l26.33-25.87v14.63h22.41v12.63h-22.41v34.67c0,8.1,3.36,12.14,10.09,12.14
			c5.03,0,10.34-1.67,15.94-5v13.09c-5.39,3.03-11.27,4.54-17.63,4.54c-6.42,0-11.76-1.87-16.01-5.62c-1.33-1.13-2.44-2.4-3.31-3.81
			c-0.87-1.41-1.61-3.26-2.19-5.54c-0.59-2.28-0.89-6.63-0.89-13.05V65.97h-12.32V64.58z"/>
		<path class="st1" d="M226.6,53.34v16.24l0.77-1.23c6.78-10.93,13.55-16.4,20.33-16.4c5.29,0,10.8,2.67,16.55,8.01l-7.39,12.32
			c-4.88-4.62-9.39-6.93-13.55-6.93c-4.52,0-8.43,2.16-11.74,6.47c-3.31,4.31-4.97,9.42-4.97,15.32v37.03h-14.09V53.34H226.6z"/>
		<path class="st1" d="M303.98,53.19c10.78,0,19.74,3.48,26.87,10.43c7.13,6.96,10.7,15.69,10.7,26.22
			c0,10.21-3.62,18.7-10.86,25.45c-7.24,6.75-16.35,10.12-27.33,10.12c-10.63,0-19.51-3.43-26.64-10.28
			c-7.13-6.85-10.7-15.41-10.7-25.68c0-10.37,3.61-19,10.82-25.91S293.1,53.19,303.98,53.19z M303.21,65.81
			c-6.73,0-12.24,2.21-16.55,6.62c-4.31,4.42-6.47,10.04-6.47,16.86c0,6.78,2.21,12.31,6.62,16.59c4.41,4.29,10.09,6.43,17.02,6.43
			c6.88,0,12.51-2.17,16.9-6.51c4.39-4.34,6.58-9.89,6.58-16.67c0-6.72-2.28-12.29-6.85-16.71
			C315.88,68.02,310.14,65.81,303.21,65.81z"/>
		<path class="st1" d="M356.18,160.28V53.34h24.53c12.56,0,22.34,3.13,29.34,9.39c7,6.26,10.5,15.01,10.5,26.25
			c0,10.62-3.29,19.35-9.88,26.18c-6.59,6.83-14.98,10.24-25.18,10.24c-4.51,0-9.51-1-14.99-3v37.88H356.18z M380.41,66.43h-9.91
			v43.58c4.3,2.21,8.81,3.31,13.52,3.31c6.55,0,11.92-2.28,16.09-6.85c4.17-4.57,6.26-10.44,6.26-17.63c0-4.62-0.99-8.7-2.96-12.24
			c-1.97-3.54-4.66-6.12-8.07-7.74C391.95,67.24,386.97,66.43,380.41,66.43z"/>
		<path class="st1" d="M443.18,23.54c2.31,0,4.28,0.8,5.93,2.39c1.64,1.59,2.46,3.54,2.46,5.85c0,2.26-0.82,4.21-2.46,5.85
			c-1.64,1.64-3.62,2.46-5.93,2.46c-2.16,0-4.06-0.83-5.7-2.5c-1.64-1.67-2.46-3.61-2.46-5.81c0-2.16,0.82-4.07,2.46-5.74
			C439.13,24.38,441.03,23.54,443.18,23.54z M436.25,53.34h14.01v70.83h-14.01V53.34z"/>
		<path class="st1" d="M504.39,53.19c10.78,0,19.74,3.48,26.87,10.43c7.13,6.96,10.7,15.69,10.7,26.22
			c0,10.21-3.62,18.7-10.86,25.45c-7.24,6.75-16.35,10.12-27.33,10.12c-10.63,0-19.51-3.43-26.64-10.28
			c-7.13-6.85-10.7-15.41-10.7-25.68c0-10.37,3.61-19,10.82-25.91C484.46,56.64,493.51,53.19,504.39,53.19z M503.62,65.81
			c-6.73,0-12.24,2.21-16.55,6.62c-4.31,4.42-6.47,10.04-6.47,16.86c0,6.78,2.21,12.31,6.62,16.59c4.41,4.29,10.09,6.43,17.02,6.43
			c6.88,0,12.51-2.17,16.9-6.51s6.58-9.89,6.58-16.67c0-6.72-2.28-12.29-6.85-16.71C516.3,68.02,510.55,65.81,503.62,65.81z"/>
	</g>
	<g>
		<circle class="st5" cx="481.68" cy="35.2" r="13.06"/>
		<circle class="st5" cx="545.46" cy="16.07" r="9.11"/>
		<circle class="st5" cx="559.9" cy="79.85" r="9.11"/>
		<circle class="st5" cx="557.61" cy="152.74" r="9.11"/>
		<circle class="st5" cx="476.68" cy="166.94" r="6.77"/>
	</g>
	<g>
		<circle class="st4" cx="519.56" cy="31.86" r="11.71"/>
		<circle class="st4" cx="569.01" cy="53.94" r="8.09"/>
		<circle class="st4" cx="563.05" cy="115.83" r="16.73"/>
		<circle class="st4" cx="502.83" cy="148.95" r="12.71"/>
	</g>
	<g>
		<circle class="st7" cx="499.82" cy="10.12" r="8.03"/>
		<circle class="st7" cx="547.33" cy="43.57" r="7.25"/>
		<circle class="st7" cx="588.14" cy="90.74" r="5.35"/>
		<circle class="st7" cx="533.94" cy="138.91" r="7.69"/>
		<circle class="st7" cx="468.63" cy="143.63" r="8.06"/>
	</g>
</g>
</svg>
