<svg id="Layer_1" data-name="Layer 1" xmlns="http://www.w3.org/2000/svg" viewBox="0 0 1062.41 1065.1"><defs><style>.cls-1{fill:#c5c1c0;}.cls-2{fill:#e4d7d7;}.cls-20,.cls-26,.cls-28,.cls-3,.cls-31,.cls-32,.cls-33,.cls-6{fill:none;stroke-miterlimit:10;}.cls-3{stroke:#123a54;}.cls-3,.cls-33{stroke-width:3px;}.cls-4{fill:#ef552f;}.cls-5{fill:#f7fff2;}.cls-26,.cls-6{stroke:#e4d8d6;}.cls-31,.cls-32,.cls-6{stroke-width:2px;}.cls-7{fill:#f5f2f6;}.cls-8{fill:#f5cdc4;}.cls-9{fill:#f37f68;}.cls-10{fill:#161f27;}.cls-11{fill:#ed3c1c;}.cls-12{fill:#f25428;}.cls-13{fill:#0a2c40;}.cls-14{fill:#104f6e;}.cls-15{fill:#e95633;}.cls-16{fill:#ffb59d;}.cls-17{fill:#092329;}.cls-18{fill:#d3c7c8;}.cls-19{fill:#e4d8d6;}.cls-20{stroke:#d3c7c8;}.cls-21{fill:#e63e24;}.cls-22{fill:#123a54;}.cls-23{fill:#fdfbf9;}.cls-24{fill:#f7bc96;}.cls-25{fill:#295b74;}.cls-27{fill:#133955;}.cls-28{stroke:#0e1f2a;}.cls-29{fill:#fab99a;}.cls-30{fill:#0a202d;}.cls-31{stroke:#062528;}.cls-31,.cls-33{stroke-linecap:round;}.cls-32{stroke:#ffe4bf;}.cls-33{stroke:#ee9579;}.cls-34{fill:#2c5a73;}</style></defs><title>solutions-illustrator</title><path class="cls-1" d="M769.78,527.83c-2.87,0-5.77,0-8.59-.11l.1-2.23q6.48.16,13.18.08l.06,2.23Zm18.08-.5-.21-2.23c4.29-.23,8.71-.56,13.12-1l.36,2.21C796.67,526.76,792.2,527.09,787.86,527.33Zm-40-.27c-4.39-.32-8.84-.74-13.23-1.25l.45-2.2c4.33.5,8.72.92,13,1.23Zm66.43-2.17-.49-2.2c4.26-.55,8.63-1.17,13-1.87l.61,2.18C823,523.71,818.62,524.34,814.32,524.89ZM721.55,524c-4.26-.69-8.61-1.48-13-2.36l.77-2.15c4.29.87,8.6,1.65,12.8,2.32Zm118.84-3.26-.71-2.17,1.69-.32c3.65-.71,7.33-1.52,10.93-2.42l.93,2.12c-3.67.91-7.41,1.74-11.14,2.46ZM695.81,518.8c-4.07-1-8.3-2.07-12.59-3.25l1-2.1c4.24,1.17,8.44,2.25,12.48,3.23Zm169.93-4.42-1.15-2c4-1.28,8-2.69,11.87-4.21l1.35,2C873.85,511.65,869.79,513.09,865.74,514.38Zm-195-2.41c-3.85-1.16-7.87-2.42-12.3-3.83l1.15-2.06c4.41,1.41,8.41,2.66,12.24,3.81Zm218.66-6.82-1.54-1.91c3.7-1.7,7.39-3.55,11-5.48l1.71,1.82C897,501.54,893.2,503.41,889.45,505.15Zm-243.15-1-12.13-4.07,1.2-2c4.07,1.36,8.1,2.72,12.12,4.05ZM622.06,496q-6-2-12.15-4l1.16-2q6.16,2,12.18,4Zm289.17-2.54-1.85-1.74c3.35-2.05,6.71-4.24,10-6.5l2,1.65C918,489.18,914.63,491.4,911.23,493.48Zm-674.67-1.67c-4.43-.07-8.94-.36-13.39-.86l.43-2.21c4.33.49,8.71.77,13,.84Zm13.41-.42-.3-2.22c4.2-.32,8.43-.83,12.94-1.54l.6,2.18C258.6,490.54,254.27,491.06,250,491.39ZM210,488.91c-4.15-.83-8.45-1.85-12.77-3.05l1-2.09c4.23,1.17,8.44,2.17,12.51,3Zm387.69-.76c-4.29-1.33-8.31-2.54-12.29-3.7l1.05-2.08c4,1.16,8,2.37,12.36,3.71Zm-321.55-.8-.81-2.14c3.79-.83,7.79-1.77,12.59-3l.93,2.11C284,485.56,280,486.52,276.16,487.35ZM184.87,482c-3.9-1.33-7.94-2.82-12-4.43l1.37-2c4,1.59,8,3.06,11.84,4.37Zm116.57-1-1-2.11,1.13-.3c3.71-1,7.5-2,11.41-3l.95,2.11q-5.85,1.51-11.39,3ZM573,481c-4.19-1.13-8.4-2.21-12.51-3.22l.91-2.12c4.13,1,8.37,2.1,12.59,3.23ZM931,479.88l-2.11-1.56c3-2.33,6.06-4.79,9-7.3l2.2,1.49C937.08,475,934,477.52,931,479.88Zm-383.08-5c-4.24-.93-8.53-1.81-12.75-2.63l.73-2.16c4.25.82,8.56,1.71,12.84,2.64Zm-221.36-.16-.88-2.13c4.44-1.05,8.61-2,12.75-2.86l.8,2.15C335.08,472.7,330.93,473.63,326.52,474.68Zm-165.3-2c-3.81-1.76-7.55-3.65-11.11-5.62l1.74-1.81c3.49,1.94,7.17,3.8,10.91,5.53Zm361.06-2.75c-4.27-.71-8.62-1.37-12.94-2l.54-2.19c4.35.61,8.74,1.28,13,2ZM352,469.34l-.69-2.17c4.34-.78,8.72-1.5,13-2.13l.57,2.19C360.6,467.85,356.26,468.57,352,469.34Zm144.35-3.06c-4.31-.5-8.71-.95-13.09-1.34l.35-2.22c4.41.4,8.84.85,13.18,1.35Zm-118.46-.76-.44-2.2c4.34-.5,8.78-.95,13.2-1.32l.33,2.22C386.57,464.59,382.17,465,377.86,465.52Zm570.82-.71-2.29-1.4c2.72-2.55,5.44-5.21,8.08-7.91l2.37,1.33C954.17,459.55,951.43,462.24,948.68,464.81Zm-478.59-.89q-2.93-.19-5.89-.36-3.69-.21-7.29-.37l.17-2.23q3.62.17,7.34.37,3,.17,5.93.36Zm-66-.61-.21-2.22c4.37-.24,8.84-.42,13.29-.54l.1,2.23C412.86,462.9,408.43,463.08,404.09,463.31Zm39.61-.57c-4.23-.09-8.46-.14-12.6-.14h-.62v-2.23h.62c4.16,0,8.43.05,12.69.14Zm-304-2c-3.35-2.19-6.62-4.53-9.73-6.94l2.11-1.56c3.05,2.37,6.26,4.66,9.55,6.82Zm824.9-12.12-2.43-1.26c2.43-2.71,4.87-5.52,7.23-8.37l2.5,1.19C969.46,443,967,445.88,964.55,448.61ZM121,446.26c-2.81-2.57-5.54-5.27-8.11-8l2.41-1.28c2.53,2.71,5.21,5.37,8,7.9Zm857.76-14.72-2.55-1.13c2.19-2.84,4.37-5.78,6.47-8.73l2.59,1.06C983.14,425.71,981,428.67,978.74,431.54Zm-873.15-1.8c-2.25-2.84-4.43-5.82-6.47-8.85l2.63-1c2,3,4.15,5.92,6.37,8.71Zm885.8-15.94-2.63-1c2-2.94,3.89-6,5.76-9l2.67.94C995.31,407.79,993.36,410.84,991.39,413.8ZM93.44,411.74c-1.74-3-3.4-6.2-5-9.39l2.77-.77c1.53,3.15,3.17,6.27,4.88,9.27Zm909.21-16.2-2.7-.89c1.73-3,3.45-6.12,5.1-9.22l2.74.84C1006.12,389.38,1004.4,392.5,1002.65,395.54ZM84.23,392.77c-1.28-3.14-2.5-6.42-3.62-9.72l2.86-.55c1.11,3.26,2.31,6.5,3.58,9.62Zm928.38-15.88-2.75-.78c1.54-3.11,3.06-6.28,4.51-9.42l2.78.73C1015.69,370.59,1014.17,373.77,1012.61,376.89Zm-935-3.67c-.91-3.22-1.75-6.55-2.51-9.9l2.9-.38c.76,3.32,1.6,6.63,2.49,9.82Zm943.83-15.35-2.8-.69c1.34-3.14,2.67-6.36,3.95-9.58l2.82.64C1024.09,351.47,1022.75,354.71,1021.4,357.87ZM73,353.35c-.59-3.24-1.13-6.61-1.6-10l2.93-.23c.47,3.37,1,6.71,1.59,9.93Zm956-14.79-2.84-.59c1.16-3.19,2.3-6.45,3.39-9.69l2.86.55C1031.38,332.09,1030.23,335.36,1029.06,338.56ZM70.23,333.32c-.33-3.27-.61-6.65-.84-10l2.94-.12c.23,3.38.51,6.74.84,10ZM1035.61,319l-2.87-.51c1-3.22,2-6.51,2.86-9.78l2.88.45C1037.57,312.49,1036.6,315.8,1035.61,319ZM68.87,313.21c-.13-3.29-.2-6.68-.24-10.07h3c0,3.37.11,6.74.23,10Zm972.21-13.88-2.9-.41c.82-3.27,1.6-6.59,2.32-9.88l2.91.37C1042.68,292.72,1041.9,296.05,1041.08,299.33ZM71.6,293.1l-2.95,0c0-3.27.12-6.65.24-10.05l3,.06C71.72,286.48,71.64,289.85,71.6,293.1Zm973.85-13.64-2.91-.32c.63-3.3,1.21-6.64,1.75-9.94l2.92.27C1046.68,272.79,1046.09,276.15,1045.45,279.46Zm-973.18-6.4-3-.08c.17-3.42.37-6.77.58-10l2.95.1C72.64,266.31,72.44,269.66,72.27,273.06Zm976.4-13.6-2.93-.22c.43-3.33.82-6.69,1.14-10l2.94.17C1049.5,252.73,1049.11,256.11,1048.67,259.46ZM73.55,253l-3-.12q.36-4.87.72-9.45l0-.58,2.94.13,0,.58Q73.9,248.15,73.55,253Zm977.09-13.66-3-.11c.22-3.38.37-6.75.46-10l2.95,0C1051,232.57,1050.86,236,1050.64,239.36ZM74.39,236.64l-3-.09c.17-3.24.49-6.65,1-10.11l2.93.23C74.87,230.09,74.55,233.44,74.39,236.64Zm973.82-17.4c0-3.38-.17-6.74-.36-10l2.94-.1c.2,3.28.32,6.67.37,10.07ZM77.08,216.77l-2.91-.36c.72-3.32,1.57-6.66,2.52-9.93l2.88.48C78.63,210.19,77.79,213.49,77.08,216.77ZM1047,199.26c-.39-3.42-.87-6.75-1.44-9.92l2.93-.3c.57,3.2,1.06,6.58,1.45,10Zm-964.18-2L80,196.67c1.22-3.25,2.58-6.49,4-9.64l2.79.74C85.34,190.87,84,194.07,82.8,197.28Zm960.6-17.79,1.45-.21-1.45.19c-.85-3.24-1.87-6.47-3.05-9.64l2.83-.61a99.67,99.67,0,0,1,3.1,9.78l-1.43.28Zm-951.88-1-2.71-.88c1.75-3.11,3.64-6.2,5.62-9.17l2.64,1C95.11,172.35,93.24,175.39,91.52,178.47Zm11.89-17.78-2.53-1.14c2.29-2.9,4.74-5.76,7.28-8.49l2.41,1.28C108.07,155,105.66,157.84,103.41,160.69Zm932.86-.32c-1.51-3.08-3.2-6.17-5-9.19l2.68-.93c1.87,3.07,3.59,6.21,5.12,9.35Zm-498.11-3.26h-1.59l0-2.23c.52,0,1,0,1.55,0,3.83,0,7.7-.15,11.52-.44l.29,2.22C546.06,157,542.08,157.11,538.16,157.11Zm-15-.72c-4.36-.42-8.8-1-13.2-1.81l.68-2.18c4.3.77,8.64,1.37,12.89,1.78Zm40-1.32-.62-2.18c4.17-.68,8.42-1.55,12.64-2.59l.91,2.13C571.83,153.48,567.48,154.37,563.21,155.07ZM497.1,152c-4.07-.9-8.35-1.91-12.72-3l.92-2.12c4.34,1.07,8.59,2.07,12.62,3Zm91.57-3.07-1.15-2.06c3.88-1.24,7.89-2.67,11.9-4.23l1.34,2C596.69,146.16,592.62,147.61,588.67,148.88Zm-116.88-3.19c-4-1.08-8.07-2.21-12.48-3.47l1-2.09c4.39,1.26,8.46,2.39,12.43,3.46Zm-353.26-1.27L116.25,143c2.83-2.6,5.82-5.14,8.89-7.55l2.12,1.54C124.24,139.37,121.3,141.87,118.53,144.42Zm906.77-2.12c-2.08-2.87-4.36-5.74-6.75-8.54l2.48-1.21c2.43,2.84,4.73,5.76,6.86,8.67Zm-412.86-2.62-1.5-1.92c3.61-1.62,7.37-3.4,11.19-5.29l1.61,1.86C619.9,136.25,616.09,138.05,612.44,139.68ZM446.91,138.6q-6.15-1.83-12.34-3.71l1.1-2.07q6.18,1.88,12.32,3.71Zm-24.65-7.48L410,127.34l1.1-2.07,12.29,3.78Zm-285.52-1-2-1.67c3.32-2.23,6.8-4.38,10.34-6.41l1.78,1.78C143.43,125.8,140,127.92,136.74,130.11Zm498-1.47-1.7-1.82c3.39-1.81,6.88-3.74,10.69-5.89l1.77,1.79C641.67,124.88,638.15,126.82,634.74,128.64Zm376.3-3.06c-2.59-2.62-5.35-5.24-8.2-7.79l2.25-1.44c2.89,2.58,5.69,5.24,8.31,7.9Zm-613.36-2q-6.15-1.86-12.33-3.68l1.07-2.08q6.19,1.83,12.35,3.69Zm-240-5.46-1.6-1.88c3.71-1.8,7.58-3.53,11.51-5.14l1.4,2C165.14,114.66,161.33,116.36,157.69,118.13Zm498.39-1.5-1.8-1.77q5.22-3,10.47-6.16l1.81,1.76Q661.31,113.57,656.08,116.63ZM373,116.34c-4.3-1.21-8.49-2.36-12.46-3.42l1-2.1c4,1.06,8.19,2.22,12.51,3.43Zm621.05-6c-3-2.37-6.16-4.72-9.38-7l2-1.63c3.26,2.29,6.46,4.67,9.5,7.08Zm-646-.69c-4.3-1.07-8.56-2.08-12.64-3l.84-2.13c4.11.92,8.39,1.93,12.72,3Zm-167.2-1-1.22-2c4.07-1.39,8.23-2.68,12.38-3.83l1,2.09C188.87,106,184.78,107.28,180.78,108.65ZM677,104.26l-1.81-1.75c3.48-2.06,7-4.13,10.5-6.18l1.79,1.77Q682.23,101.18,677,104.26ZM322.61,104c-4.34-.86-8.66-1.66-12.85-2.36l.64-2.18c4.23.71,8.58,1.51,13,2.38Zm-117.15-2.18-.81-2.15c4.26-.91,8.63-1.71,13-2.38l.58,2.19C213.94,100.13,209.64,100.92,205.46,101.82Zm91.35-2.15c-4.41-.59-8.8-1.1-13.05-1.51l.37-2.21c4.3.41,8.74.93,13.19,1.52Zm-65.6-1.81-.37-2.21c4.36-.42,8.84-.72,13.31-.91l.16,2.23C239.91,97.15,235.5,97.45,231.21,97.86Zm39.43-.69c-4.43-.24-8.86-.38-13.16-.42l0-2.23c4.36,0,8.85.18,13.34.42Zm704.1-.36c-3.34-2.1-6.83-4.18-10.36-6.17l1.76-1.79c3.57,2,7.1,4.12,10.49,6.25ZM698.06,92l-1.77-1.79c3.78-2.13,7.3-4.07,10.76-5.93l1.71,1.81C705.31,88,701.81,89.92,698.06,92ZM953.6,84.89c-3.64-1.84-7.39-3.63-11.16-5.33l1.5-1.91c3.82,1.71,7.62,3.53,11.3,5.38Zm-234-4.44L718,78.59c3.81-1.92,7.58-3.76,11.21-5.45l1.55,1.9C727.16,76.72,723.42,78.54,719.64,80.45Zm211.28-5.78c-3.87-1.55-7.85-3-11.83-4.44l1.25-2c4,1.42,8,2.93,12,4.5ZM742.14,70,740.71,68c4-1.66,7.93-3.24,11.82-4.68l1.29,2C750,66.79,746.05,68.34,742.14,70ZM907,66.24c-4.07-1.25-8.22-2.43-12.35-3.51l1-2.11c4.17,1.1,8.37,2.29,12.49,3.55Zm-141.15-5-1.14-2.06c4.06-1.28,8.3-2.43,12.63-3.41l.85,2.13C773.93,58.86,769.78,60,765.82,61.23Zm116.23-1.51c-4.24-.92-8.54-1.75-12.78-2.48l.66-2.18c4.29.74,8.64,1.59,12.93,2.52Zm-91.16-4.24-.58-2.18c4.3-.66,8.75-1.18,13.24-1.57l.33,2.22C799.47,54.33,795.11,54.84,790.89,55.48Zm65.45-.18c-4.36-.55-8.75-1-13.05-1.34l.3-2.22c4.36.34,8.82.8,13.24,1.36Zm-26.19-2c-4.42-.13-8.88-.13-13.16,0l-.1-2.23c4.35-.12,8.88-.11,13.37,0Z"/><path class="cls-2" d="M160.9,262.15a6,6,0,0,0-6.06-5.23h-2a2.87,2.87,0,0,1-2.78-2.27c-1.3-5.34-7.09-9.37-14-9.37a16.46,16.46,0,0,0-8.07,2c-.32.18-.64.37-.94.57a1.86,1.86,0,0,1-.34,0,1.62,1.62,0,0,1-1.32-.66,12.5,12.5,0,0,0-.18-1.75c-1.57-10.08-12.2-17.87-25.07-17.87-10.08,0-18.76,4.77-22.81,11.68a2.84,2.84,0,0,1-3.28,1.2,23.77,23.77,0,0,0-6.52-.91c-7.38,0-13.74,3.34-16.75,8.19A2.9,2.9,0,0,1,47,248.94a20,20,0,0,0-8.19-1.67c-7.08,0-13,3.3-14.34,7.71a2.87,2.87,0,0,1-2.77,1.94h-4.4a6,6,0,0,0-6.06,5.23,5.82,5.82,0,0,0,5.78,6.41H155.11A5.83,5.83,0,0,0,160.9,262.15Z"/><path class="cls-2" d="M492.39,194.51a6,6,0,0,0-6.06-5.23h-2a2.87,2.87,0,0,1-2.78-2.26c-1.3-5.35-7.09-9.38-14-9.38a16.46,16.46,0,0,0-8.07,2c-.32.18-.64.37-.94.57a1.19,1.19,0,0,1-.33,0,1.63,1.63,0,0,1-1.33-.66,12.65,12.65,0,0,0-.18-1.75C455.05,167.8,444.42,160,431.55,160c-10.08,0-18.75,4.77-22.81,11.68a2.84,2.84,0,0,1-3.28,1.2A23.7,23.7,0,0,0,399,172c-7.39,0-13.75,3.34-16.75,8.18a2.91,2.91,0,0,1-3.67,1.13,20,20,0,0,0-8.19-1.67c-7.08,0-13,3.31-14.34,7.71a2.87,2.87,0,0,1-2.77,1.94h-4.4a6,6,0,0,0-6.06,5.23,5.83,5.83,0,0,0,5.79,6.42h138A5.83,5.83,0,0,0,492.39,194.51Z"/><path class="cls-2" d="M449.53,44.5a6,6,0,0,0-6.06-5.23h-2A2.87,2.87,0,0,1,438.65,37c-1.3-5.35-7.09-9.38-14-9.38a16.46,16.46,0,0,0-8.07,2c-.32.18-.64.37-.94.57a1.19,1.19,0,0,1-.33,0,1.63,1.63,0,0,1-1.33-.66,12.65,12.65,0,0,0-.18-1.75C412.19,17.79,401.56,10,388.69,10c-10.08,0-18.75,4.77-22.81,11.68a2.84,2.84,0,0,1-3.28,1.2,23.7,23.7,0,0,0-6.51-.9c-7.39,0-13.75,3.34-16.75,8.18a2.91,2.91,0,0,1-3.67,1.13,20,20,0,0,0-8.19-1.67c-7.07,0-13,3.31-14.34,7.71a2.87,2.87,0,0,1-2.77,1.94H306a6,6,0,0,0-6.06,5.23,5.83,5.83,0,0,0,5.79,6.42h138A5.83,5.83,0,0,0,449.53,44.5Z"/><path class="cls-2" d="M1034.36,406.81a6,6,0,0,0-6.06-5.23h-2a2.87,2.87,0,0,1-2.78-2.26c-1.3-5.35-7.08-9.38-14-9.38a16.45,16.45,0,0,0-8.06,2c-.33.18-.65.37-1,.57a1.15,1.15,0,0,1-.33,0,1.59,1.59,0,0,1-1.32-.66,16.72,16.72,0,0,0-.18-1.75c-1.58-10.08-12.21-17.87-25.08-17.87-10.08,0-18.75,4.77-22.81,11.68a2.83,2.83,0,0,1-3.28,1.2,23.7,23.7,0,0,0-6.51-.9c-7.39,0-13.74,3.34-16.75,8.18a2.9,2.9,0,0,1-3.66,1.13,20.12,20.12,0,0,0-8.2-1.67c-7.07,0-13,3.31-14.34,7.71a2.84,2.84,0,0,1-2.76,1.94H890.8a6,6,0,0,0-6.06,5.23,5.84,5.84,0,0,0,5.79,6.42h138A5.83,5.83,0,0,0,1034.36,406.81Z"/><line class="cls-3" x1="821.21" y1="454.29" x2="687.8" y2="589.02"/><line class="cls-3" x1="332.21" y1="454.22" x2="465.62" y2="588.95"/><circle class="cls-4" cx="854.9" cy="415.98" r="62.08"/><circle class="cls-4" cx="776.2" cy="499.74" r="10.01"/><circle class="cls-4" cx="306.55" cy="420.07" r="62.08"/><circle class="cls-4" cx="377.22" cy="499.68" r="10.01"/><circle class="cls-5" cx="306.33" cy="418.92" r="9.38"/><ellipse class="cls-6" cx="306.33" cy="418.92" rx="41.09" ry="16.82"/><circle class="cls-5" cx="266.78" cy="414.35" r="5.9"/><ellipse class="cls-6" cx="306.33" cy="418.92" rx="16.82" ry="41.09" transform="translate(-203.34 321.09) rotate(-42.96)"/><circle class="cls-5" cx="282.72" cy="386.87" r="5.9"/><ellipse class="cls-6" cx="305.62" cy="418.75" rx="41.09" ry="16.82" transform="translate(-199.93 533.52) rotate(-66.67)"/><circle class="cls-5" cx="325.48" cy="384.25" r="5.9"/><path class="cls-5" d="M892.07,421.85l-10.19-3.62a26.66,26.66,0,0,0-.38-7.26l9.77-4.65a1.13,1.13,0,0,0,.54-1.51l-5-10.43a1.13,1.13,0,0,0-1.51-.54l-9.79,4.66a26.46,26.46,0,0,0-5.39-4.88l3.63-10.19a1.15,1.15,0,0,0-.69-1.46l-10.88-3.86a1.16,1.16,0,0,0-1.46.69L857.14,389a26.52,26.52,0,0,0-7.24.38l-4.66-9.79a1.16,1.16,0,0,0-1.52-.54l-10.42,5a1.13,1.13,0,0,0-.54,1.51l4.65,9.77a27,27,0,0,0-4.87,5.4l-10.19-3.62a1.13,1.13,0,0,0-1.45.69L817,408.66a1.14,1.14,0,0,0,.7,1.45l10.18,3.61a26.74,26.74,0,0,0,.37,7.27l-9.75,4.65a1.14,1.14,0,0,0-.54,1.52l5,10.42a1.15,1.15,0,0,0,1.52.53l9.75-4.63a26.84,26.84,0,0,0,5.41,4.88L836,448.53a1.14,1.14,0,0,0,.69,1.45l10.88,3.87a1.14,1.14,0,0,0,1.45-.7L852.64,443a27.22,27.22,0,0,0,7.28-.38l4.64,9.74a1.13,1.13,0,0,0,1.51.54l10.43-5a1.14,1.14,0,0,0,.54-1.51l-4.65-9.76a26.81,26.81,0,0,0,4.88-5.41l10.18,3.61a1.13,1.13,0,0,0,1.45-.68l3.86-10.88A1.14,1.14,0,0,0,892.07,421.85Zm-40.88,4.55a11.06,11.06,0,1,1,14.12-6.72A11.05,11.05,0,0,1,851.19,426.4Z"/><path class="cls-7" d="M405.67,171.8V715.44a17.56,17.56,0,0,0,17.51,17.5H715.55a17.56,17.56,0,0,0,17.5-17.5V171.8Z"/><rect class="cls-8" x="452.91" y="451.17" width="232.9" height="13.54" rx="6.77"/><rect class="cls-8" x="452.91" y="496.53" width="232.9" height="13.54" rx="6.77"/><rect class="cls-8" x="452.91" y="541.89" width="232.9" height="13.54" rx="6.77"/><rect class="cls-8" x="452.91" y="587.25" width="232.9" height="13.54" rx="6.77"/><rect class="cls-8" x="452.91" y="632.61" width="232.9" height="13.54" rx="6.77"/><rect class="cls-8" x="452.91" y="677.97" width="232.9" height="13.54" rx="6.77"/><path class="cls-9" d="M733.05,127.63a17.56,17.56,0,0,0-17.5-17.51H423.18a17.56,17.56,0,0,0-17.51,17.51V171.8H733.05Z"/><circle class="cls-10" cx="709.56" cy="137.45" r="11.37"/><circle class="cls-11" cx="677.11" cy="137.45" r="11.37"/><circle class="cls-12" cx="644.66" cy="137.45" r="11.37"/><rect class="cls-13" x="440.25" y="301.92" width="258.22" height="22.5" rx="11.25"/><rect class="cls-13" x="552.74" y="306.01" width="33.24" height="89.99" rx="16.62"/><path class="cls-14" d="M669.84,285.26V240.35a11.26,11.26,0,1,0-10.23,0V284H479.11V240.35a11.25,11.25,0,1,0-10.22,0v44.91a25.39,25.39,0,0,0-17.53,24.05v9.25a25.36,25.36,0,0,0,25.28,25.29H662.08a25.36,25.36,0,0,0,25.28-25.29v-9.25A25.38,25.38,0,0,0,669.84,285.26Z"/><rect class="cls-15" x="474.26" y="251.81" width="190.21" height="116.58" rx="57.1"/><rect class="cls-13" x="505.06" y="287.54" width="128.6" height="35.44" rx="17.72"/><rect class="cls-7" x="532.51" y="337.1" width="73.71" height="13.91" rx="6.96"/><circle class="cls-7" cx="528.5" cy="306.01" r="11.29"/><circle class="cls-7" cx="610.23" cy="306.01" r="11.29"/><path class="cls-16" d="M542.28,543.26c-2.3,4.62-3.32,5.51-5.52,5.51s-5.79-4.41-8.82-6.89-11.58-11.31-7.44-18.48,10.18-8.27,16.26-3.31S542.28,543.26,542.28,543.26Z"/><path class="cls-16" d="M598,543s1.32,6.9,5.9,5.79,3.75-3.31,9.82-7.72,10-21.23,0-22.34-13.52,10.76-13.52,10.76Z"/><path class="cls-17" d="M538.66,532.91s-5.75-1.34-6.68-10.1a62.5,62.5,0,0,0-5.29-20c-2.3-5.07-6.68-17.73,1.38-29.25s6.45-15,15.89-14.28,14.74,2.08,23.26-5.75,15-19.58,27.4-13.82,7.83,16.58,8.06,18.19,9.22-2.07,13.59,3-4.83,14-3.45,16.12a37.14,37.14,0,0,1,4.64,10.13c1.35,4.61-5.56,17-6.71,21.65s-1.75,22.35-8,27L591.4,508.08l-40.53-1.85Z"/><path class="cls-18" d="M391.1,1027.09c-6,3-51.88-30.13-67.45-56.14s-20.11-57.38-.37-62.94,57.24,56.12,69.26,109.87Z"/><path class="cls-18" d="M739.76,1015.46c-3.37-4.49,24.69-51.63,31.43-85.31S790.27,819,820.57,821.28s69.59,83.06-61.73,194.18Z"/><path class="cls-19" d="M381.72,1025.56c-7.86,5.61-80.82-31.43-108.88-65.1S231.32,883,258.25,870.67,352.53,938,381.72,1012.09Z"/><path class="cls-19" d="M748.74,1026.13c-3.37-3.94,62.86-61.18,114.49-162.2s92-88.67,103.26-78.57,28.06,161.7-188.57,241.91Z"/><path class="cls-20" d="M778.18,1010.84s95.63-71.28,147.06-163.31"/><path class="cls-20" d="M374,1015.46s-73.08-56.69-98.34-107.8"/><ellipse class="cls-18" cx="581.49" cy="1018.21" rx="241.8" ry="36.88"/><path class="cls-21" d="M581.49,978.55l-18-14.79-75.72,60s-9,5.17-2.07,13.22,10,1.11,28.33-1.94,53-4.72,55.26-8.06,3.61-15.82,3.61-15.82Z"/><path class="cls-22" d="M612.55,991.54l55.34-33.92s-33.07,13.71-89.46,13.71-92.07-14.42-92.07-14.42L546,990.15l-1.6,23.29S475.8,1008,406.55,985.18,290,924.94,307.06,889.76s83.55-39,146.76-37.37H695.11S793,842.15,838,875.47s-14.29,78.75-34.08,88.29-127,44.48-166.54,47.08Z"/><path class="cls-4" d="M484.05,885.92s-55.52-33.53-63.21-92.9S467,610.54,484.05,602.3s47.27-27.49,87.94-27.49,86.3,19.79,97.29,31.33,54.15,123.33,58.43,172.62-58.45,112.73-58.45,112.73Z"/><path class="cls-23" d="M498.07,813.14S473.88,798,472.87,789,488,741.57,488,741.57s4.54,33.77.51,58Z"/><path class="cls-23" d="M661.88,806.59V750.14s6.56,9.07,13.11,40.32L665.41,800Z"/><path class="cls-24" d="M549.15,558.19l-3.8,31.68s1.9,6,26,6,25-7.28,25-7.28l-1.9-36.12Z"/><path class="cls-16" d="M536.77,533.33c.45,10.47,6.61,26.2,16.54,36.95s22.06,12.41,33.09,1.38,13-20.4,14.62-27.85,3.31-14.34,2.76-22.61,1.38-22.62-1.93-25.37-21.24-7.73-34.47-6.62-23.44,4.68-26.75,13-1.38,13.79-2.21,20.13S536.67,531.08,536.77,533.33Z"/><path class="cls-25" d="M661.45,941.22h-166a9.5,9.5,0,0,1-8.68-7.12l-29.55-124c-1.69-7.07,1.24-13,6.55-13H693.13c5.31,0,8.24,5.94,6.55,13l-29.55,124A9.5,9.5,0,0,1,661.45,941.22Z"/><line class="cls-26" x1="478.54" y1="924.18" x2="682.26" y2="924.18"/><circle class="cls-27" cx="578.46" cy="867.63" r="15.88"/><path class="cls-28" d="M592.2,968s125.88-37.62,163.5-55.59-6.27,12.54-25.91,24.24S619.44,995.21,607.73,997.3"/><path class="cls-28" d="M569.28,971.2s-115.37-37.76-153-52.86-31.76-8.4-13.37,3.72,115.78,69.1,155.49,78.86"/><polygon class="cls-29" points="553.67 991.54 575.62 991.54 592.2 1004.08 592.2 1020.21 553.67 1018.22 553.67 991.54"/><path class="cls-4" d="M563.53,991.54l26-30,81.09,64.57s5.82,4.39,0,10.66-11.65,2.69-20.16,0-60.48-9.52-60.48-9.52S587.25,1001.2,563.53,991.54Z"/><ellipse class="cls-30" cx="557.76" cy="527.83" rx="2.88" ry="4.23"/><path class="cls-31" d="M563.17,519.38a7.23,7.23,0,0,0-6.76-3.22c-4.74.34-6.94,6.26-6.94,6.26"/><ellipse class="cls-30" cx="587.03" cy="527.83" rx="2.88" ry="4.23"/><path class="cls-31" d="M581.61,519.38a7.24,7.24,0,0,1,6.77-3.22c4.74.34,6.94,6.26,6.94,6.26"/><circle class="cls-32" cx="556.96" cy="525.82" r="12.14"/><circle class="cls-32" cx="587.83" cy="525.82" r="12.14"/><line class="cls-32" x1="569.1" y1="525.82" x2="575.69" y2="525.82"/><path class="cls-33" d="M560,552.44s12.08,12.71,24.78,0"/><polygon class="cls-34" points="542.53 984.34 560.85 984.34 558.53 1023.52 540.44 1021.9 542.53 984.34"/></svg>